<?xml version="1.0" encoding="UTF-8" standalone="no"?>
<!DOCTYPE svg PUBLIC "-//W3C//DTD SVG 1.1//EN"
 "http://www.w3.org/Graphics/SVG/1.1/DTD/svg11.dtd">
<!-- Generated by graphviz version 2.40.1 (20161225.0304)
 -->
<!-- Title: dependencies Pages: 1 -->
<svg width="1596pt" height="211pt"
 viewBox="0.00 0.00 1596.00 211.00" xmlns="http://www.w3.org/2000/svg" xmlns:xlink="http://www.w3.org/1999/xlink">
<g id="graph0" class="graph" transform="scale(1 1) rotate(0) translate(4 207)">
<title>dependencies</title>
<polygon fill="#ffffff" stroke="transparent" points="-4,4 -4,-207 1592,-207 1592,4 -4,4"/>
<text text-anchor="start" x="773.0091" y="-42.4" font-family="sans-serif" font-weight="bold" font-size="14.00" fill="#000000">Legend</text>
<polygon fill="#ffffb3" stroke="transparent" points="560,-10 560,-30 580,-30 580,-10 560,-10"/>
<text text-anchor="start" x="583.629" y="-15.4" font-family="sans-serif" font-size="14.00" fill="#000000"> &#160;Declarations</text>
<polygon fill="#8dd3c7" stroke="transparent" points="673,-10 673,-30 693,-30 693,-10 673,-10"/>
<text text-anchor="start" x="696.7251" y="-15.4" font-family="sans-serif" font-size="14.00" fill="#000000"> &#160;Module</text>
<polygon fill="#80b1d3" stroke="transparent" points="759,-10 759,-30 779,-30 779,-10 759,-10"/>
<text text-anchor="start" x="782.7812" y="-15.4" font-family="sans-serif" font-size="14.00" fill="#000000"> &#160;Bootstrap</text>
<polygon fill="#fdb462" stroke="transparent" points="856,-10 856,-30 876,-30 876,-10 856,-10"/>
<text text-anchor="start" x="879.6732" y="-15.4" font-family="sans-serif" font-size="14.00" fill="#000000"> &#160;Providers</text>
<polygon fill="#fb8072" stroke="transparent" points="952,-10 952,-30 972,-30 972,-10 952,-10"/>
<text text-anchor="start" x="975.7258" y="-15.4" font-family="sans-serif" font-size="14.00" fill="#000000"> &#160;Exports</text>
<g id="clust1" class="cluster">
<title>cluster_DefaultModule</title>
<polygon fill="none" stroke="#000000" stroke-dasharray="1,5" points="8,-70 8,-195 1580,-195 1580,-70 8,-70"/>
</g>
<g id="clust2" class="cluster">
<title>cluster_DefaultModule_declarations</title>
<polygon fill="none" stroke="#000000" points="1106,-78 1106,-130 1572,-130 1572,-78 1106,-78"/>
</g>
<g id="clust6" class="cluster">
<title>cluster_DefaultModule_imports</title>
<polygon fill="none" stroke="#000000" points="16,-78 16,-130 1098,-130 1098,-78 16,-78"/>
</g>
<!-- DefaultComponent -->
<g id="node1" class="node">
<title>DefaultComponent</title>
<polygon fill="#ffffb3" stroke="#000000" points="1563.8104,-122 1440.1896,-122 1440.1896,-86 1563.8104,-86 1563.8104,-122"/>
<text text-anchor="middle" x="1502" y="-99.8" font-family="Times,serif" font-size="14.00" fill="#000000">DefaultComponent</text>
</g>
<!-- DefaultModule -->
<g id="node4" class="node">
<title>DefaultModule</title>
<polygon fill="#8dd3c7" stroke="#000000" points="855.5285,-187 852.5285,-191 831.5285,-191 828.5285,-187 754.4715,-187 754.4715,-151 855.5285,-151 855.5285,-187"/>
<text text-anchor="middle" x="805" y="-164.8" font-family="Times,serif" font-size="14.00" fill="#000000">DefaultModule</text>
</g>
<!-- DefaultComponent&#45;&gt;DefaultModule -->
<g id="edge1" class="edge">
<title>DefaultComponent&#45;&gt;DefaultModule</title>
<path fill="none" stroke="#000000" d="M1502,-122.0908C1502,-145.1328 1502,-182 1502,-182 1502,-182 865.688,-182 865.688,-182"/>
<polygon fill="#000000" stroke="#000000" points="865.688,-178.5001 855.688,-182 865.6879,-185.5001 865.688,-178.5001"/>
</g>
<!-- ImageModalComponent -->
<g id="node2" class="node">
<title>ImageModalComponent</title>
<polygon fill="#ffffb3" stroke="#000000" points="1422.3627,-122 1269.6373,-122 1269.6373,-86 1422.3627,-86 1422.3627,-122"/>
<text text-anchor="middle" x="1346" y="-99.8" font-family="Times,serif" font-size="14.00" fill="#000000">ImageModalComponent</text>
</g>
<!-- ImageModalComponent&#45;&gt;DefaultModule -->
<g id="edge2" class="edge">
<title>ImageModalComponent&#45;&gt;DefaultModule</title>
<path fill="none" stroke="#000000" d="M1346,-122.0449C1346,-143.6623 1346,-177 1346,-177 1346,-177 865.896,-177 865.896,-177"/>
<polygon fill="#000000" stroke="#000000" points="865.896,-173.5001 855.896,-177 865.8959,-180.5001 865.896,-173.5001"/>
</g>
<!-- PdfModalComponent -->
<g id="node3" class="node">
<title>PdfModalComponent</title>
<polygon fill="#ffffb3" stroke="#000000" points="1251.8258,-122 1114.1742,-122 1114.1742,-86 1251.8258,-86 1251.8258,-122"/>
<text text-anchor="middle" x="1183" y="-99.8" font-family="Times,serif" font-size="14.00" fill="#000000">PdfModalComponent</text>
</g>
<!-- PdfModalComponent&#45;&gt;DefaultModule -->
<g id="edge3" class="edge">
<title>PdfModalComponent&#45;&gt;DefaultModule</title>
<path fill="none" stroke="#000000" d="M1183,-122.2228C1183,-142.3652 1183,-172 1183,-172 1183,-172 865.5865,-172 865.5865,-172"/>
<polygon fill="#000000" stroke="#000000" points="865.5866,-168.5001 855.5865,-172 865.5865,-175.5001 865.5866,-168.5001"/>
</g>
<!-- ContactModule -->
<g id="node5" class="node">
<title>ContactModule</title>
<polygon fill="#8dd3c7" stroke="#000000" points="1089.5968,-122 1086.5968,-126 1065.5968,-126 1062.5968,-122 986.4032,-122 986.4032,-86 1089.5968,-86 1089.5968,-122"/>
<text text-anchor="middle" x="1038" y="-99.8" font-family="Times,serif" font-size="14.00" fill="#000000">ContactModule</text>
</g>
<!-- ContactModule&#45;&gt;DefaultModule -->
<g id="edge4" class="edge">
<title>ContactModule&#45;&gt;DefaultModule</title>
<path fill="none" stroke="#000000" d="M1020.8172,-122.0336C1020.8172,-139.0597 1020.8172,-162 1020.8172,-162 1020.8172,-162 865.5995,-162 865.5995,-162"/>
<polygon fill="#000000" stroke="#000000" points="865.5996,-158.5001 855.5995,-162 865.5995,-165.5001 865.5996,-158.5001"/>
</g>
<!-- ContactModule&#45;&gt;DefaultModule -->
<g id="edge5" class="edge">
<title>ContactModule&#45;&gt;DefaultModule</title>
<path fill="none" stroke="#000000" d="M1055.1828,-122.2222C1055.1828,-140.8285 1055.1828,-167 1055.1828,-167 1055.1828,-167 865.6282,-167 865.6282,-167"/>
<polygon fill="#000000" stroke="#000000" points="865.6283,-163.5001 855.6282,-167 865.6282,-170.5001 865.6283,-163.5001"/>
</g>
<!-- CoreModule -->
<g id="node6" class="node">
<title>CoreModule</title>
<polygon fill="#8dd3c7" stroke="#000000" points="968.2619,-122 965.2619,-126 944.2619,-126 941.2619,-122 881.7381,-122 881.7381,-86 968.2619,-86 968.2619,-122"/>
<text text-anchor="middle" x="925" y="-99.8" font-family="Times,serif" font-size="14.00" fill="#000000">CoreModule</text>
</g>
<!-- CoreModule&#45;&gt;DefaultModule -->
<g id="edge6" class="edge">
<title>CoreModule&#45;&gt;DefaultModule</title>
<path fill="none" stroke="#000000" d="M925,-122.2396C925,-137.5706 925,-157 925,-157 925,-157 865.543,-157 865.543,-157"/>
<polygon fill="#000000" stroke="#000000" points="865.543,-153.5001 855.543,-157 865.543,-160.5001 865.543,-153.5001"/>
</g>
<!-- EducationModule -->
<g id="node7" class="node">
<title>EducationModule</title>
<polygon fill="#8dd3c7" stroke="#000000" points="863.3132,-122 860.3132,-126 839.3132,-126 836.3132,-122 746.6868,-122 746.6868,-86 863.3132,-86 863.3132,-122"/>
<text text-anchor="middle" x="805" y="-99.8" font-family="Times,serif" font-size="14.00" fill="#000000">EducationModule</text>
</g>
<!-- EducationModule&#45;&gt;DefaultModule -->
<g id="edge7" class="edge">
<title>EducationModule&#45;&gt;DefaultModule</title>
<path fill="none" stroke="#000000" d="M805,-122.1061C805,-122.1061 805,-140.991 805,-140.991"/>
<polygon fill="#000000" stroke="#000000" points="801.5001,-140.9909 805,-150.991 808.5001,-140.991 801.5001,-140.9909"/>
</g>
<!-- ExperienceModule -->
<g id="node8" class="node">
<title>ExperienceModule</title>
<polygon fill="#8dd3c7" stroke="#000000" points="729.013,-122 726.013,-126 705.013,-126 702.013,-122 606.987,-122 606.987,-86 729.013,-86 729.013,-122"/>
<text text-anchor="middle" x="668" y="-99.8" font-family="Times,serif" font-size="14.00" fill="#000000">ExperienceModule</text>
</g>
<!-- ExperienceModule&#45;&gt;DefaultModule -->
<g id="edge8" class="edge">
<title>ExperienceModule&#45;&gt;DefaultModule</title>
<path fill="none" stroke="#000000" d="M668,-122.2396C668,-137.5706 668,-157 668,-157 668,-157 744.3755,-157 744.3755,-157"/>
<polygon fill="#000000" stroke="#000000" points="744.3755,-160.5001 754.3755,-157 744.3755,-153.5001 744.3755,-160.5001"/>
</g>
<!-- InfoModule -->
<g id="node9" class="node">
<title>InfoModule</title>
<polygon fill="#8dd3c7" stroke="#000000" points="588.3711,-122 585.3711,-126 564.3711,-126 561.3711,-122 505.6289,-122 505.6289,-86 588.3711,-86 588.3711,-122"/>
<text text-anchor="middle" x="547" y="-99.8" font-family="Times,serif" font-size="14.00" fill="#000000">InfoModule</text>
</g>
<!-- InfoModule&#45;&gt;DefaultModule -->
<g id="edge9" class="edge">
<title>InfoModule&#45;&gt;DefaultModule</title>
<path fill="none" stroke="#000000" d="M547,-122.0336C547,-139.0597 547,-162 547,-162 547,-162 744.3353,-162 744.3353,-162"/>
<polygon fill="#000000" stroke="#000000" points="744.3354,-165.5001 754.3353,-162 744.3353,-158.5001 744.3354,-165.5001"/>
</g>
<!-- MaterialModule -->
<g id="node10" class="node">
<title>MaterialModule</title>
<polygon fill="#8dd3c7" stroke="#000000" points="487.4706,-122 484.4706,-126 463.4706,-126 460.4706,-122 380.5294,-122 380.5294,-86 487.4706,-86 487.4706,-122"/>
<text text-anchor="middle" x="434" y="-99.8" font-family="Times,serif" font-size="14.00" fill="#000000">MaterialModule</text>
</g>
<!-- MaterialModule&#45;&gt;DefaultModule -->
<g id="edge10" class="edge">
<title>MaterialModule&#45;&gt;DefaultModule</title>
<path fill="none" stroke="#000000" d="M434,-122.2222C434,-140.8285 434,-167 434,-167 434,-167 744.1919,-167 744.1919,-167"/>
<polygon fill="#000000" stroke="#000000" points="744.192,-170.5001 754.1919,-167 744.1919,-163.5001 744.192,-170.5001"/>
</g>
<!-- PortfolioModule -->
<g id="node11" class="node">
<title>PortfolioModule</title>
<polygon fill="#8dd3c7" stroke="#000000" points="362.8259,-122 359.8259,-126 338.8259,-126 335.8259,-122 253.1741,-122 253.1741,-86 362.8259,-86 362.8259,-122"/>
<text text-anchor="middle" x="308" y="-99.8" font-family="Times,serif" font-size="14.00" fill="#000000">PortfolioModule</text>
</g>
<!-- PortfolioModule&#45;&gt;DefaultModule -->
<g id="edge11" class="edge">
<title>PortfolioModule&#45;&gt;DefaultModule</title>
<path fill="none" stroke="#000000" d="M308,-122.2228C308,-142.3652 308,-172 308,-172 308,-172 744.1479,-172 744.1479,-172"/>
<polygon fill="#000000" stroke="#000000" points="744.148,-175.5001 754.1479,-172 744.1479,-168.5001 744.148,-175.5001"/>
</g>
<!-- PublishModule -->
<g id="node12" class="node">
<title>PublishModule</title>
<polygon fill="#8dd3c7" stroke="#000000" points="235.5592,-122 232.5592,-126 211.5592,-126 208.5592,-122 134.4408,-122 134.4408,-86 235.5592,-86 235.5592,-122"/>
<text text-anchor="middle" x="185" y="-99.8" font-family="Times,serif" font-size="14.00" fill="#000000">PublishModule</text>
</g>
<!-- PublishModule&#45;&gt;DefaultModule -->
<g id="edge12" class="edge">
<title>PublishModule&#45;&gt;DefaultModule</title>
<path fill="none" stroke="#000000" d="M185,-122.0449C185,-143.6623 185,-177 185,-177 185,-177 744.2628,-177 744.2628,-177"/>
<polygon fill="#000000" stroke="#000000" points="744.2628,-180.5001 754.2628,-177 744.2628,-173.5001 744.2628,-180.5001"/>
</g>
<!-- SkillsModule -->
<g id="node13" class="node">
<title>SkillsModule</title>
<polygon fill="#8dd3c7" stroke="#000000" points="115.9499,-122 112.9499,-126 91.9499,-126 88.9499,-122 24.0501,-122 24.0501,-86 115.9499,-86 115.9499,-122"/>
<text text-anchor="middle" x="70" y="-99.8" font-family="Times,serif" font-size="14.00" fill="#000000">SkillsModule</text>
</g>
<!-- SkillsModule&#45;&gt;DefaultModule -->
<g id="edge13" class="edge">
<title>SkillsModule&#45;&gt;DefaultModule</title>
<path fill="none" stroke="#000000" d="M70,-122.0908C70,-145.1328 70,-182 70,-182 70,-182 744.1905,-182 744.1905,-182"/>
<polygon fill="#000000" stroke="#000000" points="744.1905,-185.5001 754.1905,-182 744.1904,-178.5001 744.1905,-185.5001"/>
</g>
</g>
</svg>
