<?xml version="1.0" encoding="UTF-8" standalone="no"?>
<!DOCTYPE svg PUBLIC "-//W3C//DTD SVG 1.1//EN"
 "http://www.w3.org/Graphics/SVG/1.1/DTD/svg11.dtd">
<!-- Generated by graphviz version 2.40.1 (20161225.0304)
 -->
<!-- Title: dependencies Pages: 1 -->
<svg width="1719pt" height="211pt"
 viewBox="0.00 0.00 1719.00 211.00" xmlns="http://www.w3.org/2000/svg" xmlns:xlink="http://www.w3.org/1999/xlink">
<g id="graph0" class="graph" transform="scale(1 1) rotate(0) translate(4 207)">
<title>dependencies</title>
<polygon fill="#ffffff" stroke="transparent" points="-4,4 -4,-207 1715,-207 1715,4 -4,4"/>
<text text-anchor="start" x="834.5091" y="-42.4" font-family="sans-serif" font-weight="bold" font-size="14.00" fill="#000000">Legend</text>
<polygon fill="#ffffb3" stroke="transparent" points="621.5,-10 621.5,-30 641.5,-30 641.5,-10 621.5,-10"/>
<text text-anchor="start" x="645.129" y="-15.4" font-family="sans-serif" font-size="14.00" fill="#000000"> &#160;Declarations</text>
<polygon fill="#8dd3c7" stroke="transparent" points="734.5,-10 734.5,-30 754.5,-30 754.5,-10 734.5,-10"/>
<text text-anchor="start" x="758.2251" y="-15.4" font-family="sans-serif" font-size="14.00" fill="#000000"> &#160;Module</text>
<polygon fill="#80b1d3" stroke="transparent" points="820.5,-10 820.5,-30 840.5,-30 840.5,-10 820.5,-10"/>
<text text-anchor="start" x="844.2812" y="-15.4" font-family="sans-serif" font-size="14.00" fill="#000000"> &#160;Bootstrap</text>
<polygon fill="#fdb462" stroke="transparent" points="917.5,-10 917.5,-30 937.5,-30 937.5,-10 917.5,-10"/>
<text text-anchor="start" x="941.1732" y="-15.4" font-family="sans-serif" font-size="14.00" fill="#000000"> &#160;Providers</text>
<polygon fill="#fb8072" stroke="transparent" points="1013.5,-10 1013.5,-30 1033.5,-30 1033.5,-10 1013.5,-10"/>
<text text-anchor="start" x="1037.2258" y="-15.4" font-family="sans-serif" font-size="14.00" fill="#000000"> &#160;Exports</text>
<g id="clust1" class="cluster">
<title>cluster_DefaultModule</title>
<polygon fill="none" stroke="#000000" stroke-dasharray="1,5" points="8,-70 8,-195 1703,-195 1703,-70 8,-70"/>
</g>
<g id="clust2" class="cluster">
<title>cluster_DefaultModule_declarations</title>
<polygon fill="none" stroke="#000000" points="1229,-78 1229,-130 1695,-130 1695,-78 1229,-78"/>
</g>
<g id="clust6" class="cluster">
<title>cluster_DefaultModule_imports</title>
<polygon fill="none" stroke="#000000" points="16,-78 16,-130 1221,-130 1221,-78 16,-78"/>
</g>
<!-- DefaultComponent -->
<g id="node1" class="node">
<title>DefaultComponent</title>
<polygon fill="#ffffb3" stroke="#000000" points="1686.8104,-122 1563.1896,-122 1563.1896,-86 1686.8104,-86 1686.8104,-122"/>
<text text-anchor="middle" x="1625" y="-99.8" font-family="Times,serif" font-size="14.00" fill="#000000">DefaultComponent</text>
</g>
<!-- DefaultModule -->
<g id="node4" class="node">
<title>DefaultModule</title>
<polygon fill="#8dd3c7" stroke="#000000" points="909.5285,-187 906.5285,-191 885.5285,-191 882.5285,-187 808.4715,-187 808.4715,-151 909.5285,-151 909.5285,-187"/>
<text text-anchor="middle" x="859" y="-164.8" font-family="Times,serif" font-size="14.00" fill="#000000">DefaultModule</text>
</g>
<!-- DefaultComponent&#45;&gt;DefaultModule -->
<g id="edge1" class="edge">
<title>DefaultComponent&#45;&gt;DefaultModule</title>
<path fill="none" stroke="#000000" d="M1625,-122.0908C1625,-145.1328 1625,-182 1625,-182 1625,-182 919.5556,-182 919.5556,-182"/>
<polygon fill="#000000" stroke="#000000" points="919.5557,-178.5001 909.5556,-182 919.5556,-185.5001 919.5557,-178.5001"/>
</g>
<!-- ImageModalComponent -->
<g id="node2" class="node">
<title>ImageModalComponent</title>
<polygon fill="#ffffb3" stroke="#000000" points="1545.3627,-122 1392.6373,-122 1392.6373,-86 1545.3627,-86 1545.3627,-122"/>
<text text-anchor="middle" x="1469" y="-99.8" font-family="Times,serif" font-size="14.00" fill="#000000">ImageModalComponent</text>
</g>
<!-- ImageModalComponent&#45;&gt;DefaultModule -->
<g id="edge2" class="edge">
<title>ImageModalComponent&#45;&gt;DefaultModule</title>
<path fill="none" stroke="#000000" d="M1469,-122.0449C1469,-143.6623 1469,-177 1469,-177 1469,-177 919.6982,-177 919.6982,-177"/>
<polygon fill="#000000" stroke="#000000" points="919.6982,-173.5001 909.6982,-177 919.6981,-180.5001 919.6982,-173.5001"/>
</g>
<!-- PdfModalComponent -->
<g id="node3" class="node">
<title>PdfModalComponent</title>
<polygon fill="#ffffb3" stroke="#000000" points="1374.8258,-122 1237.1742,-122 1237.1742,-86 1374.8258,-86 1374.8258,-122"/>
<text text-anchor="middle" x="1306" y="-99.8" font-family="Times,serif" font-size="14.00" fill="#000000">PdfModalComponent</text>
</g>
<!-- PdfModalComponent&#45;&gt;DefaultModule -->
<g id="edge3" class="edge">
<title>PdfModalComponent&#45;&gt;DefaultModule</title>
<path fill="none" stroke="#000000" d="M1306,-122.2228C1306,-142.3652 1306,-172 1306,-172 1306,-172 919.8414,-172 919.8414,-172"/>
<polygon fill="#000000" stroke="#000000" points="919.8414,-168.5001 909.8414,-172 919.8414,-175.5001 919.8414,-168.5001"/>
</g>
<!-- ContactModule -->
<g id="node5" class="node">
<title>ContactModule</title>
<polygon fill="#8dd3c7" stroke="#000000" points="1212.5968,-122 1209.5968,-126 1188.5968,-126 1185.5968,-122 1109.4032,-122 1109.4032,-86 1212.5968,-86 1212.5968,-122"/>
<text text-anchor="middle" x="1161" y="-99.8" font-family="Times,serif" font-size="14.00" fill="#000000">ContactModule</text>
</g>
<!-- ContactModule&#45;&gt;DefaultModule -->
<g id="edge4" class="edge">
<title>ContactModule&#45;&gt;DefaultModule</title>
<path fill="none" stroke="#000000" d="M1143.8172,-122.0336C1143.8172,-139.0597 1143.8172,-162 1143.8172,-162 1143.8172,-162 919.5914,-162 919.5914,-162"/>
<polygon fill="#000000" stroke="#000000" points="919.5914,-158.5001 909.5914,-162 919.5914,-165.5001 919.5914,-158.5001"/>
</g>
<!-- ContactModule&#45;&gt;DefaultModule -->
<g id="edge5" class="edge">
<title>ContactModule&#45;&gt;DefaultModule</title>
<path fill="none" stroke="#000000" d="M1178.1828,-122.2222C1178.1828,-140.8285 1178.1828,-167 1178.1828,-167 1178.1828,-167 919.5755,-167 919.5755,-167"/>
<polygon fill="#000000" stroke="#000000" points="919.5755,-163.5001 909.5755,-167 919.5754,-170.5001 919.5755,-163.5001"/>
</g>
<!-- CoreModule -->
<g id="node6" class="node">
<title>CoreModule</title>
<polygon fill="#8dd3c7" stroke="#000000" points="1091.2619,-122 1088.2619,-126 1067.2619,-126 1064.2619,-122 1004.7381,-122 1004.7381,-86 1091.2619,-86 1091.2619,-122"/>
<text text-anchor="middle" x="1048" y="-99.8" font-family="Times,serif" font-size="14.00" fill="#000000">CoreModule</text>
</g>
<!-- CoreModule&#45;&gt;DefaultModule -->
<g id="edge6" class="edge">
<title>CoreModule&#45;&gt;DefaultModule</title>
<path fill="none" stroke="#000000" d="M1048,-122.2396C1048,-137.5706 1048,-157 1048,-157 1048,-157 919.6485,-157 919.6485,-157"/>
<polygon fill="#000000" stroke="#000000" points="919.6486,-153.5001 909.6485,-157 919.6485,-160.5001 919.6486,-153.5001"/>
</g>
<!-- EducationModule -->
<g id="node7" class="node">
<title>EducationModule</title>
<polygon fill="#8dd3c7" stroke="#000000" points="986.3132,-122 983.3132,-126 962.3132,-126 959.3132,-122 869.6868,-122 869.6868,-86 986.3132,-86 986.3132,-122"/>
<text text-anchor="middle" x="928" y="-99.8" font-family="Times,serif" font-size="14.00" fill="#000000">EducationModule</text>
</g>
<!-- EducationModule&#45;&gt;DefaultModule -->
<g id="edge7" class="edge">
<title>EducationModule&#45;&gt;DefaultModule</title>
<path fill="none" stroke="#000000" d="M889.8037,-122.1061C889.8037,-122.1061 889.8037,-140.991 889.8037,-140.991"/>
<polygon fill="#000000" stroke="#000000" points="886.3037,-140.9909 889.8037,-150.991 893.3037,-140.991 886.3037,-140.9909"/>
</g>
<!-- ExperienceModule -->
<g id="node8" class="node">
<title>ExperienceModule</title>
<polygon fill="#8dd3c7" stroke="#000000" points="852.013,-122 849.013,-126 828.013,-126 825.013,-122 729.987,-122 729.987,-86 852.013,-86 852.013,-122"/>
<text text-anchor="middle" x="791" y="-99.8" font-family="Times,serif" font-size="14.00" fill="#000000">ExperienceModule</text>
</g>
<!-- ExperienceModule&#45;&gt;DefaultModule -->
<g id="edge8" class="edge">
<title>ExperienceModule&#45;&gt;DefaultModule</title>
<path fill="none" stroke="#000000" d="M830.2461,-122.1061C830.2461,-122.1061 830.2461,-140.991 830.2461,-140.991"/>
<polygon fill="#000000" stroke="#000000" points="826.7462,-140.9909 830.2461,-150.991 833.7462,-140.991 826.7462,-140.9909"/>
</g>
<!-- InfoModule -->
<g id="node9" class="node">
<title>InfoModule</title>
<polygon fill="#8dd3c7" stroke="#000000" points="711.3711,-122 708.3711,-126 687.3711,-126 684.3711,-122 628.6289,-122 628.6289,-86 711.3711,-86 711.3711,-122"/>
<text text-anchor="middle" x="670" y="-99.8" font-family="Times,serif" font-size="14.00" fill="#000000">InfoModule</text>
</g>
<!-- InfoModule&#45;&gt;DefaultModule -->
<g id="edge9" class="edge">
<title>InfoModule&#45;&gt;DefaultModule</title>
<path fill="none" stroke="#000000" d="M670,-122.2396C670,-137.5706 670,-157 670,-157 670,-157 798.3515,-157 798.3515,-157"/>
<polygon fill="#000000" stroke="#000000" points="798.3515,-160.5001 808.3515,-157 798.3514,-153.5001 798.3515,-160.5001"/>
</g>
<!-- MaterialModule -->
<g id="node10" class="node">
<title>MaterialModule</title>
<polygon fill="#8dd3c7" stroke="#000000" points="610.4706,-122 607.4706,-126 586.4706,-126 583.4706,-122 503.5294,-122 503.5294,-86 610.4706,-86 610.4706,-122"/>
<text text-anchor="middle" x="557" y="-99.8" font-family="Times,serif" font-size="14.00" fill="#000000">MaterialModule</text>
</g>
<!-- MaterialModule&#45;&gt;DefaultModule -->
<g id="edge10" class="edge">
<title>MaterialModule&#45;&gt;DefaultModule</title>
<path fill="none" stroke="#000000" d="M557,-122.0336C557,-139.0597 557,-162 557,-162 557,-162 798.452,-162 798.452,-162"/>
<polygon fill="#000000" stroke="#000000" points="798.452,-165.5001 808.452,-162 798.452,-158.5001 798.452,-165.5001"/>
</g>
<!-- PortfolioModule -->
<g id="node11" class="node">
<title>PortfolioModule</title>
<polygon fill="#8dd3c7" stroke="#000000" points="485.8259,-122 482.8259,-126 461.8259,-126 458.8259,-122 376.1741,-122 376.1741,-86 485.8259,-86 485.8259,-122"/>
<text text-anchor="middle" x="431" y="-99.8" font-family="Times,serif" font-size="14.00" fill="#000000">PortfolioModule</text>
</g>
<!-- PortfolioModule&#45;&gt;DefaultModule -->
<g id="edge11" class="edge">
<title>PortfolioModule&#45;&gt;DefaultModule</title>
<path fill="none" stroke="#000000" d="M431,-122.2222C431,-140.8285 431,-167 431,-167 431,-167 798.2221,-167 798.2221,-167"/>
<polygon fill="#000000" stroke="#000000" points="798.2221,-170.5001 808.2221,-167 798.222,-163.5001 798.2221,-170.5001"/>
</g>
<!-- ProjectsModule -->
<g id="node12" class="node">
<title>ProjectsModule</title>
<polygon fill="#8dd3c7" stroke="#000000" points="358.1486,-122 355.1486,-126 334.1486,-126 331.1486,-122 253.8514,-122 253.8514,-86 358.1486,-86 358.1486,-122"/>
<text text-anchor="middle" x="306" y="-99.8" font-family="Times,serif" font-size="14.00" fill="#000000">ProjectsModule</text>
</g>
<!-- ProjectsModule&#45;&gt;DefaultModule -->
<g id="edge12" class="edge">
<title>ProjectsModule&#45;&gt;DefaultModule</title>
<path fill="none" stroke="#000000" d="M306,-122.2228C306,-142.3652 306,-172 306,-172 306,-172 798.4589,-172 798.4589,-172"/>
<polygon fill="#000000" stroke="#000000" points="798.459,-175.5001 808.4589,-172 798.4589,-168.5001 798.459,-175.5001"/>
</g>
<!-- PublishModule -->
<g id="node13" class="node">
<title>PublishModule</title>
<polygon fill="#8dd3c7" stroke="#000000" points="235.5592,-122 232.5592,-126 211.5592,-126 208.5592,-122 134.4408,-122 134.4408,-86 235.5592,-86 235.5592,-122"/>
<text text-anchor="middle" x="185" y="-99.8" font-family="Times,serif" font-size="14.00" fill="#000000">PublishModule</text>
</g>
<!-- PublishModule&#45;&gt;DefaultModule -->
<g id="edge13" class="edge">
<title>PublishModule&#45;&gt;DefaultModule</title>
<path fill="none" stroke="#000000" d="M185,-122.0449C185,-143.6623 185,-177 185,-177 185,-177 798.3405,-177 798.3405,-177"/>
<polygon fill="#000000" stroke="#000000" points="798.3405,-180.5001 808.3405,-177 798.3404,-173.5001 798.3405,-180.5001"/>
</g>
<!-- SkillsModule -->
<g id="node14" class="node">
<title>SkillsModule</title>
<polygon fill="#8dd3c7" stroke="#000000" points="115.9499,-122 112.9499,-126 91.9499,-126 88.9499,-122 24.0501,-122 24.0501,-86 115.9499,-86 115.9499,-122"/>
<text text-anchor="middle" x="70" y="-99.8" font-family="Times,serif" font-size="14.00" fill="#000000">SkillsModule</text>
</g>
<!-- SkillsModule&#45;&gt;DefaultModule -->
<g id="edge14" class="edge">
<title>SkillsModule&#45;&gt;DefaultModule</title>
<path fill="none" stroke="#000000" d="M70,-122.0908C70,-145.1328 70,-182 70,-182 70,-182 798.4443,-182 798.4443,-182"/>
<polygon fill="#000000" stroke="#000000" points="798.4443,-185.5001 808.4443,-182 798.4442,-178.5001 798.4443,-185.5001"/>
</g>
</g>
</svg>
