<?xml version="1.0" encoding="UTF-8" standalone="no"?>
<!DOCTYPE svg PUBLIC "-//W3C//DTD SVG 1.1//EN"
 "http://www.w3.org/Graphics/SVG/1.1/DTD/svg11.dtd">
<!-- Generated by graphviz version 2.40.1 (20161225.0304)
 -->
<!-- Title: dependencies Pages: 1 -->
<svg width="504pt" height="211pt"
 viewBox="0.00 0.00 504.00 211.00" xmlns="http://www.w3.org/2000/svg" xmlns:xlink="http://www.w3.org/1999/xlink">
<g id="graph0" class="graph" transform="scale(1 1) rotate(0) translate(4 207)">
<title>dependencies</title>
<polygon fill="#ffffff" stroke="transparent" points="-4,4 -4,-207 500,-207 500,4 -4,4"/>
<text text-anchor="start" x="227.0091" y="-42.4" font-family="sans-serif" font-weight="bold" font-size="14.00" fill="#000000">Legend</text>
<polygon fill="#ffffb3" stroke="transparent" points="14,-10 14,-30 34,-30 34,-10 14,-10"/>
<text text-anchor="start" x="37.629" y="-15.4" font-family="sans-serif" font-size="14.00" fill="#000000"> &#160;Declarations</text>
<polygon fill="#8dd3c7" stroke="transparent" points="127,-10 127,-30 147,-30 147,-10 127,-10"/>
<text text-anchor="start" x="150.7251" y="-15.4" font-family="sans-serif" font-size="14.00" fill="#000000"> &#160;Module</text>
<polygon fill="#80b1d3" stroke="transparent" points="213,-10 213,-30 233,-30 233,-10 213,-10"/>
<text text-anchor="start" x="236.7812" y="-15.4" font-family="sans-serif" font-size="14.00" fill="#000000"> &#160;Bootstrap</text>
<polygon fill="#fdb462" stroke="transparent" points="310,-10 310,-30 330,-30 330,-10 310,-10"/>
<text text-anchor="start" x="333.6732" y="-15.4" font-family="sans-serif" font-size="14.00" fill="#000000"> &#160;Providers</text>
<polygon fill="#fb8072" stroke="transparent" points="406,-10 406,-30 426,-30 426,-10 406,-10"/>
<text text-anchor="start" x="429.7258" y="-15.4" font-family="sans-serif" font-size="14.00" fill="#000000"> &#160;Exports</text>
<g id="clust1" class="cluster">
<title>cluster_PublishModule</title>
<polygon fill="none" stroke="#000000" stroke-dasharray="1,5" points="22.5,-70 22.5,-195 473.5,-195 473.5,-70 22.5,-70"/>
</g>
<g id="clust2" class="cluster">
<title>cluster_PublishModule_declarations</title>
<polygon fill="none" stroke="#000000" points="325.5,-78 325.5,-130 465.5,-130 465.5,-78 325.5,-78"/>
</g>
<g id="clust4" class="cluster">
<title>cluster_PublishModule_imports</title>
<polygon fill="none" stroke="#000000" points="30.5,-78 30.5,-130 317.5,-130 317.5,-78 30.5,-78"/>
</g>
<!-- PublishComponent -->
<g id="node1" class="node">
<title>PublishComponent</title>
<polygon fill="#ffffb3" stroke="#000000" points="457.3413,-122 333.6587,-122 333.6587,-86 457.3413,-86 457.3413,-122"/>
<text text-anchor="middle" x="395.5" y="-99.8" font-family="Times,serif" font-size="14.00" fill="#000000">PublishComponent</text>
</g>
<!-- PublishModule -->
<g id="node2" class="node">
<title>PublishModule</title>
<polygon fill="#8dd3c7" stroke="#000000" points="307.0592,-187 304.0592,-191 283.0592,-191 280.0592,-187 205.9408,-187 205.9408,-151 307.0592,-151 307.0592,-187"/>
<text text-anchor="middle" x="256.5" y="-164.8" font-family="Times,serif" font-size="14.00" fill="#000000">PublishModule</text>
</g>
<!-- PublishComponent&#45;&gt;PublishModule -->
<g id="edge1" class="edge">
<title>PublishComponent&#45;&gt;PublishModule</title>
<path fill="none" stroke="#000000" d="M395.5,-122.1061C395.5,-141.3391 395.5,-169 395.5,-169 395.5,-169 317.0754,-169 317.0754,-169"/>
<polygon fill="#000000" stroke="#000000" points="317.0754,-165.5001 307.0754,-169 317.0754,-172.5001 317.0754,-165.5001"/>
</g>
<!-- MaterialModule -->
<g id="node3" class="node">
<title>MaterialModule</title>
<polygon fill="#8dd3c7" stroke="#000000" points="309.9706,-122 306.9706,-126 285.9706,-126 282.9706,-122 203.0294,-122 203.0294,-86 309.9706,-86 309.9706,-122"/>
<text text-anchor="middle" x="256.5" y="-99.8" font-family="Times,serif" font-size="14.00" fill="#000000">MaterialModule</text>
</g>
<!-- MaterialModule&#45;&gt;PublishModule -->
<g id="edge2" class="edge">
<title>MaterialModule&#45;&gt;PublishModule</title>
<path fill="none" stroke="#000000" d="M256.5,-122.1061C256.5,-122.1061 256.5,-140.991 256.5,-140.991"/>
<polygon fill="#000000" stroke="#000000" points="253.0001,-140.9909 256.5,-150.991 260.0001,-140.991 253.0001,-140.9909"/>
</g>
<!-- PublishRoutingModule -->
<g id="node4" class="node">
<title>PublishRoutingModule</title>
<polygon fill="#8dd3c7" stroke="#000000" points="184.6764,-122 181.6764,-126 160.6764,-126 157.6764,-122 38.3236,-122 38.3236,-86 184.6764,-86 184.6764,-122"/>
<text text-anchor="middle" x="111.5" y="-99.8" font-family="Times,serif" font-size="14.00" fill="#000000">PublishRoutingModule</text>
</g>
<!-- PublishRoutingModule&#45;&gt;PublishModule -->
<g id="edge3" class="edge">
<title>PublishRoutingModule&#45;&gt;PublishModule</title>
<path fill="none" stroke="#000000" d="M111.5,-122.1061C111.5,-141.3391 111.5,-169 111.5,-169 111.5,-169 195.786,-169 195.786,-169"/>
<polygon fill="#000000" stroke="#000000" points="195.7861,-172.5001 205.786,-169 195.786,-165.5001 195.7861,-172.5001"/>
</g>
</g>
</svg>
