<?xml version="1.0" encoding="UTF-8" standalone="no"?>
<!DOCTYPE svg PUBLIC "-//W3C//DTD SVG 1.1//EN"
 "http://www.w3.org/Graphics/SVG/1.1/DTD/svg11.dtd">
<!-- Generated by graphviz version 2.40.1 (20161225.0304)
 -->
<!-- Title: dependencies Pages: 1 -->
<svg width="739pt" height="211pt"
 viewBox="0.00 0.00 739.00 211.00" xmlns="http://www.w3.org/2000/svg" xmlns:xlink="http://www.w3.org/1999/xlink">
<g id="graph0" class="graph" transform="scale(1 1) rotate(0) translate(4 207)">
<title>dependencies</title>
<polygon fill="#ffffff" stroke="transparent" points="-4,4 -4,-207 735,-207 735,4 -4,4"/>
<text text-anchor="start" x="344.5091" y="-42.4" font-family="sans-serif" font-weight="bold" font-size="14.00" fill="#000000">Legend</text>
<polygon fill="#ffffb3" stroke="transparent" points="131.5,-10 131.5,-30 151.5,-30 151.5,-10 131.5,-10"/>
<text text-anchor="start" x="155.129" y="-15.4" font-family="sans-serif" font-size="14.00" fill="#000000"> &#160;Declarations</text>
<polygon fill="#8dd3c7" stroke="transparent" points="244.5,-10 244.5,-30 264.5,-30 264.5,-10 244.5,-10"/>
<text text-anchor="start" x="268.2251" y="-15.4" font-family="sans-serif" font-size="14.00" fill="#000000"> &#160;Module</text>
<polygon fill="#80b1d3" stroke="transparent" points="330.5,-10 330.5,-30 350.5,-30 350.5,-10 330.5,-10"/>
<text text-anchor="start" x="354.2812" y="-15.4" font-family="sans-serif" font-size="14.00" fill="#000000"> &#160;Bootstrap</text>
<polygon fill="#fdb462" stroke="transparent" points="427.5,-10 427.5,-30 447.5,-30 447.5,-10 427.5,-10"/>
<text text-anchor="start" x="451.1732" y="-15.4" font-family="sans-serif" font-size="14.00" fill="#000000"> &#160;Providers</text>
<polygon fill="#fb8072" stroke="transparent" points="523.5,-10 523.5,-30 543.5,-30 543.5,-10 523.5,-10"/>
<text text-anchor="start" x="547.2258" y="-15.4" font-family="sans-serif" font-size="14.00" fill="#000000"> &#160;Exports</text>
<g id="clust1" class="cluster">
<title>cluster_AuthModule</title>
<polygon fill="none" stroke="#000000" stroke-dasharray="1,5" points="8,-70 8,-195 723,-195 723,-70 8,-70"/>
</g>
<g id="clust2" class="cluster">
<title>cluster_AuthModule_declarations</title>
<polygon fill="none" stroke="#000000" points="297,-78 297,-130 715,-130 715,-78 297,-78"/>
</g>
<g id="clust6" class="cluster">
<title>cluster_AuthModule_imports</title>
<polygon fill="none" stroke="#000000" points="16,-78 16,-130 289,-130 289,-78 16,-78"/>
</g>
<!-- LoginComponent -->
<g id="node1" class="node">
<title>LoginComponent</title>
<polygon fill="#ffffb3" stroke="#000000" points="707.2758,-122 592.7242,-122 592.7242,-86 707.2758,-86 707.2758,-122"/>
<text text-anchor="middle" x="650" y="-99.8" font-family="Times,serif" font-size="14.00" fill="#000000">LoginComponent</text>
</g>
<!-- AuthModule -->
<g id="node4" class="node">
<title>AuthModule</title>
<polygon fill="#8dd3c7" stroke="#000000" points="412.5482,-187 409.5482,-191 388.5482,-191 385.5482,-187 325.4518,-187 325.4518,-151 412.5482,-151 412.5482,-187"/>
<text text-anchor="middle" x="369" y="-164.8" font-family="Times,serif" font-size="14.00" fill="#000000">AuthModule</text>
</g>
<!-- LoginComponent&#45;&gt;AuthModule -->
<g id="edge1" class="edge">
<title>LoginComponent&#45;&gt;AuthModule</title>
<path fill="none" stroke="#000000" d="M650,-122.2843C650,-143.3211 650,-175 650,-175 650,-175 422.5979,-175 422.5979,-175"/>
<polygon fill="#000000" stroke="#000000" points="422.598,-171.5001 412.5979,-175 422.5979,-178.5001 422.598,-171.5001"/>
</g>
<!-- PrivacyComponent -->
<g id="node2" class="node">
<title>PrivacyComponent</title>
<polygon fill="#ffffb3" stroke="#000000" points="575.0954,-122 450.9046,-122 450.9046,-86 575.0954,-86 575.0954,-122"/>
<text text-anchor="middle" x="513" y="-99.8" font-family="Times,serif" font-size="14.00" fill="#000000">PrivacyComponent</text>
</g>
<!-- PrivacyComponent&#45;&gt;AuthModule -->
<g id="edge2" class="edge">
<title>PrivacyComponent&#45;&gt;AuthModule</title>
<path fill="none" stroke="#000000" d="M513,-122.0225C513,-139.3734 513,-163 513,-163 513,-163 422.5955,-163 422.5955,-163"/>
<polygon fill="#000000" stroke="#000000" points="422.5956,-159.5001 412.5955,-163 422.5955,-166.5001 422.5956,-159.5001"/>
</g>
<!-- RegisterComponent -->
<g id="node3" class="node">
<title>RegisterComponent</title>
<polygon fill="#ffffb3" stroke="#000000" points="432.9846,-122 305.0154,-122 305.0154,-86 432.9846,-86 432.9846,-122"/>
<text text-anchor="middle" x="369" y="-99.8" font-family="Times,serif" font-size="14.00" fill="#000000">RegisterComponent</text>
</g>
<!-- RegisterComponent&#45;&gt;AuthModule -->
<g id="edge3" class="edge">
<title>RegisterComponent&#45;&gt;AuthModule</title>
<path fill="none" stroke="#000000" d="M369,-122.1061C369,-122.1061 369,-140.991 369,-140.991"/>
<polygon fill="#000000" stroke="#000000" points="365.5001,-140.9909 369,-150.991 372.5001,-140.991 365.5001,-140.9909"/>
</g>
<!-- AuthRoutingModule -->
<g id="node5" class="node">
<title>AuthRoutingModule</title>
<polygon fill="#8dd3c7" stroke="#000000" points="281.1652,-122 278.1652,-126 257.1652,-126 254.1652,-122 148.8348,-122 148.8348,-86 281.1652,-86 281.1652,-122"/>
<text text-anchor="middle" x="215" y="-99.8" font-family="Times,serif" font-size="14.00" fill="#000000">AuthRoutingModule</text>
</g>
<!-- AuthRoutingModule&#45;&gt;AuthModule -->
<g id="edge4" class="edge">
<title>AuthRoutingModule&#45;&gt;AuthModule</title>
<path fill="none" stroke="#000000" d="M215,-122.0225C215,-139.3734 215,-163 215,-163 215,-163 315.2817,-163 315.2817,-163"/>
<polygon fill="#000000" stroke="#000000" points="315.2817,-166.5001 325.2817,-163 315.2817,-159.5001 315.2817,-166.5001"/>
</g>
<!-- MaterialModule -->
<g id="node6" class="node">
<title>MaterialModule</title>
<polygon fill="#8dd3c7" stroke="#000000" points="130.4706,-122 127.4706,-126 106.4706,-126 103.4706,-122 23.5294,-122 23.5294,-86 130.4706,-86 130.4706,-122"/>
<text text-anchor="middle" x="77" y="-99.8" font-family="Times,serif" font-size="14.00" fill="#000000">MaterialModule</text>
</g>
<!-- MaterialModule&#45;&gt;AuthModule -->
<g id="edge5" class="edge">
<title>MaterialModule&#45;&gt;AuthModule</title>
<path fill="none" stroke="#000000" d="M77,-122.2843C77,-143.3211 77,-175 77,-175 77,-175 315.2846,-175 315.2846,-175"/>
<polygon fill="#000000" stroke="#000000" points="315.2847,-178.5001 325.2846,-175 315.2846,-171.5001 315.2847,-178.5001"/>
</g>
</g>
</svg>
