<?xml version="1.0" encoding="UTF-8" standalone="no"?>
<!DOCTYPE svg PUBLIC "-//W3C//DTD SVG 1.1//EN"
 "http://www.w3.org/Graphics/SVG/1.1/DTD/svg11.dtd">
<!-- Generated by graphviz version 2.40.1 (20161225.0304)
 -->
<!-- Title: dependencies Pages: 1 -->
<svg width="518pt" height="284pt"
 viewBox="0.00 0.00 518.00 284.00" xmlns="http://www.w3.org/2000/svg" xmlns:xlink="http://www.w3.org/1999/xlink">
<g id="graph0" class="graph" transform="scale(1 1) rotate(0) translate(4 280)">
<title>dependencies</title>
<polygon fill="#ffffff" stroke="transparent" points="-4,4 -4,-280 514,-280 514,4 -4,4"/>
<text text-anchor="start" x="234.0091" y="-42.4" font-family="sans-serif" font-weight="bold" font-size="14.00" fill="#000000">Legend</text>
<polygon fill="#ffffb3" stroke="transparent" points="21,-10 21,-30 41,-30 41,-10 21,-10"/>
<text text-anchor="start" x="44.629" y="-15.4" font-family="sans-serif" font-size="14.00" fill="#000000"> &#160;Declarations</text>
<polygon fill="#8dd3c7" stroke="transparent" points="134,-10 134,-30 154,-30 154,-10 134,-10"/>
<text text-anchor="start" x="157.7251" y="-15.4" font-family="sans-serif" font-size="14.00" fill="#000000"> &#160;Module</text>
<polygon fill="#80b1d3" stroke="transparent" points="220,-10 220,-30 240,-30 240,-10 220,-10"/>
<text text-anchor="start" x="243.7812" y="-15.4" font-family="sans-serif" font-size="14.00" fill="#000000"> &#160;Bootstrap</text>
<polygon fill="#fdb462" stroke="transparent" points="317,-10 317,-30 337,-30 337,-10 317,-10"/>
<text text-anchor="start" x="340.6732" y="-15.4" font-family="sans-serif" font-size="14.00" fill="#000000"> &#160;Providers</text>
<polygon fill="#fb8072" stroke="transparent" points="413,-10 413,-30 433,-30 433,-10 413,-10"/>
<text text-anchor="start" x="436.7258" y="-15.4" font-family="sans-serif" font-size="14.00" fill="#000000"> &#160;Exports</text>
<g id="clust1" class="cluster">
<title>cluster_CoreModule</title>
<polygon fill="none" stroke="#000000" stroke-dasharray="1,5" points="8,-70 8,-268 502,-268 502,-70 8,-70"/>
</g>
<g id="clust2" class="cluster">
<title>cluster_CoreModule_declarations</title>
<polygon fill="none" stroke="#000000" points="22,-78 22,-130 488,-130 488,-78 22,-78"/>
</g>
<g id="clust7" class="cluster">
<title>cluster_CoreModule_exports</title>
<polygon fill="none" stroke="#000000" points="16,-208 16,-260 494,-260 494,-208 16,-208"/>
</g>
<!-- MainComponent -->
<g id="node1" class="node">
<title>MainComponent</title>
<polygon fill="#ffffb3" stroke="#000000" points="480.3823,-122 369.6177,-122 369.6177,-86 480.3823,-86 480.3823,-122"/>
<text text-anchor="middle" x="425" y="-99.8" font-family="Times,serif" font-size="14.00" fill="#000000">MainComponent</text>
</g>
<!-- CoreModule -->
<g id="node4" class="node">
<title>CoreModule</title>
<polygon fill="#8dd3c7" stroke="#000000" points="312.2619,-187 309.2619,-191 288.2619,-191 285.2619,-187 225.7381,-187 225.7381,-151 312.2619,-151 312.2619,-187"/>
<text text-anchor="middle" x="269" y="-164.8" font-family="Times,serif" font-size="14.00" fill="#000000">CoreModule</text>
</g>
<!-- MainComponent&#45;&gt;CoreModule -->
<g id="edge1" class="edge">
<title>MainComponent&#45;&gt;CoreModule</title>
<path fill="none" stroke="#000000" d="M444.2304,-122.0225C444.2304,-139.3734 444.2304,-163 444.2304,-163 444.2304,-163 322.3154,-163 322.3154,-163"/>
<polygon fill="#000000" stroke="#000000" points="322.3154,-159.5001 312.3154,-163 322.3153,-166.5001 322.3154,-159.5001"/>
</g>
<!-- PageNotFoundComponent -->
<g id="node2" class="node">
<title>PageNotFoundComponent</title>
<polygon fill="#ffffb3" stroke="#000000" points="351.8243,-122 186.1757,-122 186.1757,-86 351.8243,-86 351.8243,-122"/>
<text text-anchor="middle" x="269" y="-99.8" font-family="Times,serif" font-size="14.00" fill="#000000">PageNotFoundComponent</text>
</g>
<!-- PageNotFoundComponent&#45;&gt;CoreModule -->
<g id="edge2" class="edge">
<title>PageNotFoundComponent&#45;&gt;CoreModule</title>
<path fill="none" stroke="#000000" d="M269,-122.1061C269,-122.1061 269,-140.991 269,-140.991"/>
<polygon fill="#000000" stroke="#000000" points="265.5001,-140.9909 269,-150.991 272.5001,-140.991 265.5001,-140.9909"/>
</g>
<!-- WellcomeComponent -->
<g id="node3" class="node">
<title>WellcomeComponent</title>
<polygon fill="#ffffb3" stroke="#000000" points="168.3627,-122 29.6373,-122 29.6373,-86 168.3627,-86 168.3627,-122"/>
<text text-anchor="middle" x="99" y="-99.8" font-family="Times,serif" font-size="14.00" fill="#000000">WellcomeComponent</text>
</g>
<!-- WellcomeComponent&#45;&gt;CoreModule -->
<g id="edge3" class="edge">
<title>WellcomeComponent&#45;&gt;CoreModule</title>
<path fill="none" stroke="#000000" d="M120.6438,-122.0225C120.6438,-139.3734 120.6438,-163 120.6438,-163 120.6438,-163 215.6904,-163 215.6904,-163"/>
<polygon fill="#000000" stroke="#000000" points="215.6905,-166.5001 225.6904,-163 215.6904,-159.5001 215.6905,-166.5001"/>
</g>
<!-- MainComponent  -->
<g id="node5" class="node">
<title>MainComponent </title>
<polygon fill="#fb8072" stroke="#000000" points="486.3828,-252 371.6172,-252 371.6172,-216 486.3828,-216 486.3828,-252"/>
<text text-anchor="middle" x="429" y="-229.8" font-family="Times,serif" font-size="14.00" fill="#000000">MainComponent </text>
</g>
<!-- CoreModule&#45;&gt;MainComponent  -->
<g id="edge4" class="edge">
<title>CoreModule&#45;&gt;MainComponent </title>
<path fill="none" stroke="#000000" stroke-dasharray="5,2" d="M312.6053,-175C353.3752,-175 408.0196,-175 408.0196,-175 408.0196,-175 408.0196,-205.9775 408.0196,-205.9775"/>
<polygon fill="#000000" stroke="#000000" points="404.5197,-205.9774 408.0196,-215.9775 411.5197,-205.9775 404.5197,-205.9774"/>
</g>
<!-- PageNotFoundComponent  -->
<g id="node6" class="node">
<title>PageNotFoundComponent </title>
<polygon fill="#fb8072" stroke="#000000" points="353.3241,-252 184.6759,-252 184.6759,-216 353.3241,-216 353.3241,-252"/>
<text text-anchor="middle" x="269" y="-229.8" font-family="Times,serif" font-size="14.00" fill="#000000">PageNotFoundComponent </text>
</g>
<!-- CoreModule&#45;&gt;PageNotFoundComponent  -->
<g id="edge5" class="edge">
<title>CoreModule&#45;&gt;PageNotFoundComponent </title>
<path fill="none" stroke="#000000" stroke-dasharray="5,2" d="M269,-187.1061C269,-187.1061 269,-205.991 269,-205.991"/>
<polygon fill="#000000" stroke="#000000" points="265.5001,-205.9909 269,-215.991 272.5001,-205.991 265.5001,-205.9909"/>
</g>
<!-- WellcomeComponent  -->
<g id="node7" class="node">
<title>WellcomeComponent </title>
<polygon fill="#fb8072" stroke="#000000" points="166.3631,-252 23.6369,-252 23.6369,-216 166.3631,-216 166.3631,-252"/>
<text text-anchor="middle" x="95" y="-229.8" font-family="Times,serif" font-size="14.00" fill="#000000">WellcomeComponent </text>
</g>
<!-- CoreModule&#45;&gt;WellcomeComponent  -->
<g id="edge6" class="edge">
<title>CoreModule&#45;&gt;WellcomeComponent </title>
<path fill="none" stroke="#000000" stroke-dasharray="5,2" d="M225.4865,-175C168.3201,-175 75.1062,-175 75.1062,-175 75.1062,-175 75.1062,-205.9775 75.1062,-205.9775"/>
<polygon fill="#000000" stroke="#000000" points="71.6061,-205.9775 75.1062,-215.9775 78.6061,-205.9774 71.6061,-205.9775"/>
</g>
</g>
</svg>
