<?xml version="1.0" encoding="UTF-8" standalone="no"?>
<!DOCTYPE svg PUBLIC "-//W3C//DTD SVG 1.1//EN"
 "http://www.w3.org/Graphics/SVG/1.1/DTD/svg11.dtd">
<!-- Generated by graphviz version 2.40.1 (20161225.0304)
 -->
<!-- Title: dependencies Pages: 1 -->
<svg width="3896pt" height="543pt"
 viewBox="0.00 0.00 3896.00 542.59" xmlns="http://www.w3.org/2000/svg" xmlns:xlink="http://www.w3.org/1999/xlink">
<g id="graph0" class="graph" transform="scale(1 1) rotate(0) translate(4 538.5901)">
<title>dependencies</title>
<polygon fill="#ffffff" stroke="transparent" points="-4,4 -4,-538.5901 3892,-538.5901 3892,4 -4,4"/>
<text text-anchor="start" x="1923.0091" y="-42.4" font-family="sans-serif" font-weight="bold" font-size="14.00" fill="#000000">Legend</text>
<polygon fill="#ffffb3" stroke="transparent" points="1710,-10 1710,-30 1730,-30 1730,-10 1710,-10"/>
<text text-anchor="start" x="1733.629" y="-15.4" font-family="sans-serif" font-size="14.00" fill="#000000"> &#160;Declarations</text>
<polygon fill="#8dd3c7" stroke="transparent" points="1823,-10 1823,-30 1843,-30 1843,-10 1823,-10"/>
<text text-anchor="start" x="1846.7251" y="-15.4" font-family="sans-serif" font-size="14.00" fill="#000000"> &#160;Module</text>
<polygon fill="#80b1d3" stroke="transparent" points="1909,-10 1909,-30 1929,-30 1929,-10 1909,-10"/>
<text text-anchor="start" x="1932.7812" y="-15.4" font-family="sans-serif" font-size="14.00" fill="#000000"> &#160;Bootstrap</text>
<polygon fill="#fdb462" stroke="transparent" points="2006,-10 2006,-30 2026,-30 2026,-10 2006,-10"/>
<text text-anchor="start" x="2029.6732" y="-15.4" font-family="sans-serif" font-size="14.00" fill="#000000"> &#160;Providers</text>
<polygon fill="#fb8072" stroke="transparent" points="2102,-10 2102,-30 2122,-30 2122,-10 2102,-10"/>
<text text-anchor="start" x="2125.7258" y="-15.4" font-family="sans-serif" font-size="14.00" fill="#000000"> &#160;Exports</text>
<g id="clust1" class="cluster">
<title>cluster_AppModule</title>
<polygon fill="none" stroke="#000000" stroke-dasharray="1,5" points="483,-260.5901 483,-526.5901 906,-526.5901 906,-260.5901 483,-260.5901"/>
</g>
<g id="clust2" class="cluster">
<title>cluster_AppModule_declarations</title>
<polygon fill="none" stroke="#000000" points="776,-336.5901 776,-388.5901 898,-388.5901 898,-336.5901 776,-336.5901"/>
</g>
<g id="clust4" class="cluster">
<title>cluster_AppModule_imports</title>
<polygon fill="none" stroke="#000000" points="499,-268.5901 499,-388.5901 768,-388.5901 768,-268.5901 499,-268.5901"/>
</g>
<g id="clust6" class="cluster">
<title>cluster_AppModule_bootstrap</title>
<polygon fill="none" stroke="#000000" points="520,-466.5901 520,-518.5901 644,-518.5901 644,-466.5901 520,-466.5901"/>
</g>
<g id="clust14" class="cluster">
<title>cluster_ContactModule</title>
<polygon fill="none" stroke="#000000" stroke-dasharray="1,5" points="8,-184.5901 8,-320.5901 336,-320.5901 336,-184.5901 8,-184.5901"/>
</g>
<g id="clust15" class="cluster">
<title>cluster_ContactModule_declarations</title>
<polygon fill="none" stroke="#000000" points="188,-192.5901 188,-244.5901 328,-244.5901 328,-192.5901 188,-192.5901"/>
</g>
<g id="clust17" class="cluster">
<title>cluster_ContactModule_imports</title>
<polygon fill="none" stroke="#000000" points="16,-192.5901 16,-244.5901 180,-244.5901 180,-192.5901 16,-192.5901"/>
</g>
<g id="clust27" class="cluster">
<title>cluster_CoreModule</title>
<polygon fill="none" stroke="#000000" stroke-dasharray="1,5" points="3386,-184.5901 3386,-396.5901 3880,-396.5901 3880,-184.5901 3386,-184.5901"/>
</g>
<g id="clust28" class="cluster">
<title>cluster_CoreModule_declarations</title>
<polygon fill="none" stroke="#000000" points="3394,-192.5901 3394,-244.5901 3861,-244.5901 3861,-192.5901 3394,-192.5901"/>
</g>
<g id="clust33" class="cluster">
<title>cluster_CoreModule_exports</title>
<polygon fill="none" stroke="#000000" points="3394,-336.5901 3394,-388.5901 3872,-388.5901 3872,-336.5901 3394,-336.5901"/>
</g>
<g id="clust36" class="cluster">
<title>cluster_DefaultModule</title>
<polygon fill="none" stroke="#000000" stroke-dasharray="1,5" points="914,-260.5901 914,-328.5901 2256,-328.5901 2256,-260.5901 914,-260.5901"/>
</g>
<g id="clust37" class="cluster">
<title>cluster_DefaultModule_declarations</title>
<polygon fill="none" stroke="#000000" points="1783,-268.5901 1783,-320.5901 2248,-320.5901 2248,-268.5901 1783,-268.5901"/>
</g>
<g id="clust41" class="cluster">
<title>cluster_DefaultModule_imports</title>
<polygon fill="none" stroke="#000000" points="922,-268.5901 922,-320.5901 1775,-320.5901 1775,-268.5901 922,-268.5901"/>
</g>
<g id="clust45" class="cluster">
<title>cluster_EducationModule</title>
<polygon fill="none" stroke="#000000" stroke-dasharray="1,5" points="2382,-70 2382,-252.5901 3378,-252.5901 3378,-70 2382,-70"/>
</g>
<g id="clust46" class="cluster">
<title>cluster_EducationModule_declarations</title>
<polygon fill="none" stroke="#000000" points="2643,-192.5901 2643,-244.5901 2797,-244.5901 2797,-192.5901 2643,-192.5901"/>
</g>
<g id="clust47" class="cluster">
<title>cluster_EducationModule_EducationComponent_providers</title>
<polygon fill="none" stroke="#000000" points="2576,-78 2576,-176.5901 3370,-176.5901 3370,-78 2576,-78"/>
</g>
<g id="clust48" class="cluster">
<title>cluster_EducationModule_imports</title>
<polygon fill="none" stroke="#000000" points="2390,-101.295 2390,-153.295 2568,-153.295 2568,-101.295 2390,-101.295"/>
</g>
<g id="clust58" class="cluster">
<title>cluster_ExperienceModule</title>
<polygon fill="none" stroke="#000000" stroke-dasharray="1,5" points="372,-184.5901 372,-252.5901 740,-252.5901 740,-184.5901 372,-184.5901"/>
</g>
<g id="clust59" class="cluster">
<title>cluster_ExperienceModule_declarations</title>
<polygon fill="none" stroke="#000000" points="572,-192.5901 572,-244.5901 732,-244.5901 732,-192.5901 572,-192.5901"/>
</g>
<g id="clust61" class="cluster">
<title>cluster_ExperienceModule_imports</title>
<polygon fill="none" stroke="#000000" points="380,-192.5901 380,-244.5901 564,-244.5901 564,-192.5901 380,-192.5901"/>
</g>
<g id="clust71" class="cluster">
<title>cluster_FullPageModule</title>
<polygon fill="none" stroke="#000000" stroke-dasharray="1,5" points="2264,-260.5901 2264,-328.5901 2592,-328.5901 2592,-260.5901 2264,-260.5901"/>
</g>
<g id="clust72" class="cluster">
<title>cluster_FullPageModule_declarations</title>
<polygon fill="none" stroke="#000000" points="2272,-268.5901 2272,-320.5901 2584,-320.5901 2584,-268.5901 2272,-268.5901"/>
</g>
<g id="clust79" class="cluster">
<title>cluster_InfoModule</title>
<polygon fill="none" stroke="#000000" stroke-dasharray="1,5" points="748,-184.5901 748,-252.5901 1036,-252.5901 1036,-184.5901 748,-184.5901"/>
</g>
<g id="clust80" class="cluster">
<title>cluster_InfoModule_declarations</title>
<polygon fill="none" stroke="#000000" points="908,-192.5901 908,-244.5901 1028,-244.5901 1028,-192.5901 908,-192.5901"/>
</g>
<g id="clust82" class="cluster">
<title>cluster_InfoModule_imports</title>
<polygon fill="none" stroke="#000000" points="756,-192.5901 756,-244.5901 900,-244.5901 900,-192.5901 756,-192.5901"/>
</g>
<g id="clust98" class="cluster">
<title>cluster_PortfolioModule</title>
<polygon fill="none" stroke="#000000" stroke-dasharray="1,5" points="1044,-184.5901 1044,-252.5901 1386,-252.5901 1386,-184.5901 1044,-184.5901"/>
</g>
<g id="clust99" class="cluster">
<title>cluster_PortfolioModule_declarations</title>
<polygon fill="none" stroke="#000000" points="1230,-192.5901 1230,-244.5901 1378,-244.5901 1378,-192.5901 1230,-192.5901"/>
</g>
<g id="clust101" class="cluster">
<title>cluster_PortfolioModule_imports</title>
<polygon fill="none" stroke="#000000" points="1052,-192.5901 1052,-244.5901 1222,-244.5901 1222,-192.5901 1052,-192.5901"/>
</g>
<g id="clust111" class="cluster">
<title>cluster_ProjectsModule</title>
<polygon fill="none" stroke="#000000" stroke-dasharray="1,5" points="1394,-184.5901 1394,-252.5901 1726,-252.5901 1726,-184.5901 1394,-184.5901"/>
</g>
<g id="clust112" class="cluster">
<title>cluster_ProjectsModule_declarations</title>
<polygon fill="none" stroke="#000000" points="1576,-192.5901 1576,-244.5901 1718,-244.5901 1718,-192.5901 1576,-192.5901"/>
</g>
<g id="clust114" class="cluster">
<title>cluster_ProjectsModule_imports</title>
<polygon fill="none" stroke="#000000" points="1402,-192.5901 1402,-244.5901 1568,-244.5901 1568,-192.5901 1402,-192.5901"/>
</g>
<g id="clust124" class="cluster">
<title>cluster_PublishModule</title>
<polygon fill="none" stroke="#000000" stroke-dasharray="1,5" points="1734,-184.5901 1734,-252.5901 2060,-252.5901 2060,-184.5901 1734,-184.5901"/>
</g>
<g id="clust125" class="cluster">
<title>cluster_PublishModule_declarations</title>
<polygon fill="none" stroke="#000000" points="1912,-192.5901 1912,-244.5901 2052,-244.5901 2052,-192.5901 1912,-192.5901"/>
</g>
<g id="clust127" class="cluster">
<title>cluster_PublishModule_imports</title>
<polygon fill="none" stroke="#000000" points="1742,-192.5901 1742,-244.5901 1904,-244.5901 1904,-192.5901 1742,-192.5901"/>
</g>
<g id="clust137" class="cluster">
<title>cluster_SkillsModule</title>
<polygon fill="none" stroke="#000000" stroke-dasharray="1,5" points="2068,-184.5901 2068,-252.5901 2374,-252.5901 2374,-184.5901 2068,-184.5901"/>
</g>
<g id="clust138" class="cluster">
<title>cluster_SkillsModule_declarations</title>
<polygon fill="none" stroke="#000000" points="2236,-192.5901 2236,-244.5901 2366,-244.5901 2366,-192.5901 2236,-192.5901"/>
</g>
<g id="clust140" class="cluster">
<title>cluster_SkillsModule_imports</title>
<polygon fill="none" stroke="#000000" points="2076,-192.5901 2076,-244.5901 2228,-244.5901 2228,-192.5901 2076,-192.5901"/>
</g>
<!-- AppComponent -->
<g id="node1" class="node">
<title>AppComponent</title>
<polygon fill="#ffffb3" stroke="#000000" points="889.9399,-380.5901 784.0601,-380.5901 784.0601,-344.5901 889.9399,-344.5901 889.9399,-380.5901"/>
<text text-anchor="middle" x="837" y="-358.3901" font-family="Times,serif" font-size="14.00" fill="#000000">AppComponent</text>
</g>
<!-- AppModule -->
<g id="node2" class="node">
<title>AppModule</title>
<polygon fill="#8dd3c7" stroke="#000000" points="623.6571,-445.5901 620.6571,-449.5901 599.6571,-449.5901 596.6571,-445.5901 540.3429,-445.5901 540.3429,-409.5901 623.6571,-409.5901 623.6571,-445.5901"/>
<text text-anchor="middle" x="582" y="-423.3901" font-family="Times,serif" font-size="14.00" fill="#000000">AppModule</text>
</g>
<!-- AppComponent&#45;&gt;AppModule -->
<g id="edge1" class="edge">
<title>AppComponent&#45;&gt;AppModule</title>
<path fill="none" stroke="#000000" d="M837,-380.8822C837,-402.7957 837,-436.5901 837,-436.5901 837,-436.5901 633.8225,-436.5901 633.8225,-436.5901"/>
<polygon fill="#000000" stroke="#000000" points="633.8226,-433.0902 623.8225,-436.5901 633.8225,-440.0902 633.8226,-433.0902"/>
</g>
<!-- AppComponent  -->
<g id="node7" class="node">
<title>AppComponent </title>
<polygon fill="#80b1d3" stroke="#000000" points="636.439,-510.5901 527.561,-510.5901 527.561,-474.5901 636.439,-474.5901 636.439,-510.5901"/>
<text text-anchor="middle" x="582" y="-488.3901" font-family="Times,serif" font-size="14.00" fill="#000000">AppComponent </text>
</g>
<!-- AppModule&#45;&gt;AppComponent  -->
<g id="edge6" class="edge">
<title>AppModule&#45;&gt;AppComponent </title>
<path fill="none" stroke="#000000" stroke-dasharray="1,5" d="M582,-445.6962C582,-445.6962 582,-464.581 582,-464.581"/>
<polygon fill="#000000" stroke="#000000" points="578.5001,-464.581 582,-474.581 585.5001,-464.5811 578.5001,-464.581"/>
</g>
<!-- AppRoutingModule -->
<g id="node3" class="node">
<title>AppRoutingModule</title>
<polygon fill="#8dd3c7" stroke="#000000" points="635.2744,-312.5901 632.2744,-316.5901 611.2744,-316.5901 608.2744,-312.5901 506.7256,-312.5901 506.7256,-276.5901 635.2744,-276.5901 635.2744,-312.5901"/>
<text text-anchor="middle" x="571" y="-290.3901" font-family="Times,serif" font-size="14.00" fill="#000000">AppRoutingModule</text>
</g>
<!-- AppRoutingModule&#45;&gt;AppModule -->
<g id="edge2" class="edge">
<title>AppRoutingModule&#45;&gt;AppModule</title>
<path fill="none" stroke="#000000" d="M517.0717,-312.8043C517.0717,-349.2296 517.0717,-427.5901 517.0717,-427.5901 517.0717,-427.5901 530.1458,-427.5901 530.1458,-427.5901"/>
<polygon fill="#000000" stroke="#000000" points="530.1458,-431.0902 540.1458,-427.5901 530.1458,-424.0902 530.1458,-431.0902"/>
</g>
<!-- DefaultModule -->
<g id="node4" class="node">
<title>DefaultModule</title>
<polygon fill="#8dd3c7" stroke="#000000" points="632.5285,-380.5901 629.5285,-384.5901 608.5285,-384.5901 605.5285,-380.5901 531.4715,-380.5901 531.4715,-344.5901 632.5285,-344.5901 632.5285,-380.5901"/>
<text text-anchor="middle" x="582" y="-358.3901" font-family="Times,serif" font-size="14.00" fill="#000000">DefaultModule</text>
</g>
<!-- DefaultModule&#45;&gt;AppModule -->
<g id="edge3" class="edge">
<title>DefaultModule&#45;&gt;AppModule</title>
<path fill="none" stroke="#000000" d="M582,-380.6962C582,-380.6962 582,-399.581 582,-399.581"/>
<polygon fill="#000000" stroke="#000000" points="578.5001,-399.581 582,-409.581 585.5001,-399.5811 578.5001,-399.581"/>
</g>
<!-- FullPageModule -->
<g id="node5" class="node">
<title>FullPageModule</title>
<polygon fill="#8dd3c7" stroke="#000000" points="759.8259,-380.5901 756.8259,-384.5901 735.8259,-384.5901 732.8259,-380.5901 650.1741,-380.5901 650.1741,-344.5901 759.8259,-344.5901 759.8259,-380.5901"/>
<text text-anchor="middle" x="705" y="-358.3901" font-family="Times,serif" font-size="14.00" fill="#000000">FullPageModule</text>
</g>
<!-- FullPageModule&#45;&gt;AppModule -->
<g id="edge4" class="edge">
<title>FullPageModule&#45;&gt;AppModule</title>
<path fill="none" stroke="#000000" d="M705,-380.6962C705,-399.9292 705,-427.5901 705,-427.5901 705,-427.5901 633.9856,-427.5901 633.9856,-427.5901"/>
<polygon fill="#000000" stroke="#000000" points="633.9856,-424.0902 623.9856,-427.5901 633.9856,-431.0902 633.9856,-424.0902"/>
</g>
<!-- MaterialModule -->
<g id="node6" class="node">
<title>MaterialModule</title>
<polygon fill="#8dd3c7" stroke="#000000" points="760.4706,-312.5901 757.4706,-316.5901 736.4706,-316.5901 733.4706,-312.5901 653.5294,-312.5901 653.5294,-276.5901 760.4706,-276.5901 760.4706,-312.5901"/>
<text text-anchor="middle" x="707" y="-290.3901" font-family="Times,serif" font-size="14.00" fill="#000000">MaterialModule</text>
</g>
<!-- MaterialModule&#45;&gt;AppModule -->
<g id="edge5" class="edge">
<title>MaterialModule&#45;&gt;AppModule</title>
<path fill="none" stroke="#000000" d="M653.4765,-300.5901C648.753,-300.5901 645.7147,-300.5901 645.7147,-300.5901 645.7147,-300.5901 645.7147,-418.5901 645.7147,-418.5901 645.7147,-418.5901 633.7877,-418.5901 633.7877,-418.5901"/>
<polygon fill="#000000" stroke="#000000" points="633.7877,-415.0902 623.7877,-418.5901 633.7877,-422.0902 633.7877,-415.0902"/>
</g>
<!-- MaterialModule&#45;&gt;DefaultModule -->
<g id="edge25" class="edge">
<title>MaterialModule&#45;&gt;DefaultModule</title>
<path fill="none" stroke="#000000" d="M653.4889,-288.5901C646.1617,-288.5901 641.0921,-288.5901 641.0921,-288.5901 641.0921,-288.5901 641.0921,-362.5901 641.0921,-362.5901 641.0921,-362.5901 640.2455,-362.5901 640.2455,-362.5901"/>
<polygon fill="#000000" stroke="#000000" points="642.6257,-359.0902 632.6256,-362.5901 642.6256,-366.0902 642.6257,-359.0902"/>
</g>
<!-- MaterialModule&#45;&gt;FullPageModule -->
<g id="edge40" class="edge">
<title>MaterialModule&#45;&gt;FullPageModule</title>
<path fill="none" stroke="#000000" d="M674.7443,-312.8128C674.7443,-312.8128 674.7443,-334.317 674.7443,-334.317"/>
<polygon fill="#000000" stroke="#000000" points="671.2444,-334.317 674.7443,-344.317 678.2444,-334.3171 671.2444,-334.317"/>
</g>
<!-- ContactModule -->
<g id="node9" class="node">
<title>ContactModule</title>
<polygon fill="#8dd3c7" stroke="#000000" points="327.5968,-312.5901 324.5968,-316.5901 303.5968,-316.5901 300.5968,-312.5901 224.4032,-312.5901 224.4032,-276.5901 327.5968,-276.5901 327.5968,-312.5901"/>
<text text-anchor="middle" x="276" y="-290.3901" font-family="Times,serif" font-size="14.00" fill="#000000">ContactModule</text>
</g>
<!-- MaterialModule&#45;&gt;ContactModule -->
<g id="edge9" class="edge">
<title>MaterialModule&#45;&gt;ContactModule</title>
<path fill="none" stroke="#000000" d="M677.0589,-276.3467C677.0589,-269.1604 677.0589,-262.5901 677.0589,-262.5901 677.0589,-262.5901 323.9941,-262.5901 323.9941,-262.5901 323.9941,-262.5901 323.9941,-266.3467 323.9941,-266.3467"/>
<polygon fill="#000000" stroke="#000000" points="320.4941,-266.3466 323.9941,-276.3467 327.4941,-266.3467 320.4941,-266.3466"/>
</g>
<!-- EducationModule -->
<g id="node21" class="node">
<title>EducationModule</title>
<polygon fill="#8dd3c7" stroke="#000000" points="1415.3132,-312.5901 1412.3132,-316.5901 1391.3132,-316.5901 1388.3132,-312.5901 1298.6868,-312.5901 1298.6868,-276.5901 1415.3132,-276.5901 1415.3132,-312.5901"/>
<text text-anchor="middle" x="1357" y="-290.3901" font-family="Times,serif" font-size="14.00" fill="#000000">EducationModule</text>
</g>
<!-- MaterialModule&#45;&gt;EducationModule -->
<g id="edge33" class="edge">
<title>MaterialModule&#45;&gt;EducationModule</title>
<path fill="none" stroke="#000000" d="M744.9119,-276.4097C744.9119,-263.5519 744.9119,-248.5901 744.9119,-248.5901 744.9119,-248.5901 1334.1988,-248.5901 1334.1988,-248.5901 1334.1988,-248.5901 1334.1988,-266.4097 1334.1988,-266.4097"/>
<polygon fill="#000000" stroke="#000000" points="1330.6989,-266.4096 1334.1988,-276.4097 1337.6989,-266.4097 1330.6989,-266.4096"/>
</g>
<!-- ExperienceModule -->
<g id="node22" class="node">
<title>ExperienceModule</title>
<polygon fill="#8dd3c7" stroke="#000000" points="1052.013,-312.5901 1049.013,-316.5901 1028.013,-316.5901 1025.013,-312.5901 929.987,-312.5901 929.987,-276.5901 1052.013,-276.5901 1052.013,-312.5901"/>
<text text-anchor="middle" x="991" y="-290.3901" font-family="Times,serif" font-size="14.00" fill="#000000">ExperienceModule</text>
</g>
<!-- MaterialModule&#45;&gt;ExperienceModule -->
<g id="edge36" class="edge">
<title>MaterialModule&#45;&gt;ExperienceModule</title>
<path fill="none" stroke="#000000" d="M760.7521,-294.5901C760.7521,-294.5901 919.8258,-294.5901 919.8258,-294.5901"/>
<polygon fill="#000000" stroke="#000000" points="919.8258,-298.0902 929.8258,-294.5901 919.8258,-291.0902 919.8258,-298.0902"/>
</g>
<!-- InfoModule -->
<g id="node23" class="node">
<title>InfoModule</title>
<polygon fill="#8dd3c7" stroke="#000000" points="1153.3711,-312.5901 1150.3711,-316.5901 1129.3711,-316.5901 1126.3711,-312.5901 1070.6289,-312.5901 1070.6289,-276.5901 1153.3711,-276.5901 1153.3711,-312.5901"/>
<text text-anchor="middle" x="1112" y="-290.3901" font-family="Times,serif" font-size="14.00" fill="#000000">InfoModule</text>
</g>
<!-- MaterialModule&#45;&gt;InfoModule -->
<g id="edge43" class="edge">
<title>MaterialModule&#45;&gt;InfoModule</title>
<path fill="none" stroke="#000000" d="M755.2942,-276.4602C755.2942,-266.2756 755.2942,-255.5901 755.2942,-255.5901 755.2942,-255.5901 1098.1882,-255.5901 1098.1882,-255.5901 1098.1882,-255.5901 1098.1882,-266.4602 1098.1882,-266.4602"/>
<polygon fill="#000000" stroke="#000000" points="1094.6883,-266.4601 1098.1882,-276.4602 1101.6883,-266.4602 1094.6883,-266.4601"/>
</g>
<!-- PortfolioModule -->
<g id="node24" class="node">
<title>PortfolioModule</title>
<polygon fill="#8dd3c7" stroke="#000000" points="1280.8259,-312.5901 1277.8259,-316.5901 1256.8259,-316.5901 1253.8259,-312.5901 1171.1741,-312.5901 1171.1741,-276.5901 1280.8259,-276.5901 1280.8259,-312.5901"/>
<text text-anchor="middle" x="1226" y="-290.3901" font-family="Times,serif" font-size="14.00" fill="#000000">PortfolioModule</text>
</g>
<!-- MaterialModule&#45;&gt;PortfolioModule -->
<g id="edge45" class="edge">
<title>MaterialModule&#45;&gt;PortfolioModule</title>
<path fill="none" stroke="#000000" d="M750.103,-276.1047C750.103,-264.4502 750.103,-251.5901 750.103,-251.5901 750.103,-251.5901 1185.6321,-251.5901 1185.6321,-251.5901 1185.6321,-251.5901 1185.6321,-266.1047 1185.6321,-266.1047"/>
<polygon fill="#000000" stroke="#000000" points="1182.1322,-266.1046 1185.6321,-276.1047 1189.1322,-266.1047 1182.1322,-266.1046"/>
</g>
<!-- ProjectsModule -->
<g id="node25" class="node">
<title>ProjectsModule</title>
<polygon fill="#8dd3c7" stroke="#000000" points="1537.1486,-312.5901 1534.1486,-316.5901 1513.1486,-316.5901 1510.1486,-312.5901 1432.8514,-312.5901 1432.8514,-276.5901 1537.1486,-276.5901 1537.1486,-312.5901"/>
<text text-anchor="middle" x="1485" y="-290.3901" font-family="Times,serif" font-size="14.00" fill="#000000">ProjectsModule</text>
</g>
<!-- MaterialModule&#45;&gt;ProjectsModule -->
<g id="edge48" class="edge">
<title>MaterialModule&#45;&gt;ProjectsModule</title>
<path fill="none" stroke="#000000" d="M739.7207,-276.4433C739.7207,-262.8506 739.7207,-246.5901 739.7207,-246.5901 739.7207,-246.5901 1458.838,-246.5901 1458.838,-246.5901 1458.838,-246.5901 1458.838,-266.4433 1458.838,-266.4433"/>
<polygon fill="#000000" stroke="#000000" points="1455.3381,-266.4433 1458.838,-276.4433 1462.3381,-266.4434 1455.3381,-266.4433"/>
</g>
<!-- PublishModule -->
<g id="node26" class="node">
<title>PublishModule</title>
<polygon fill="#8dd3c7" stroke="#000000" points="1656.5592,-312.5901 1653.5592,-316.5901 1632.5592,-316.5901 1629.5592,-312.5901 1555.4408,-312.5901 1555.4408,-276.5901 1656.5592,-276.5901 1656.5592,-312.5901"/>
<text text-anchor="middle" x="1606" y="-290.3901" font-family="Times,serif" font-size="14.00" fill="#000000">PublishModule</text>
</g>
<!-- MaterialModule&#45;&gt;PublishModule -->
<g id="edge51" class="edge">
<title>MaterialModule&#45;&gt;PublishModule</title>
<path fill="none" stroke="#000000" d="M734.5296,-276.5389C734.5296,-262.217 734.5296,-244.5901 734.5296,-244.5901 734.5296,-244.5901 1571.8338,-244.5901 1571.8338,-244.5901 1571.8338,-244.5901 1571.8338,-266.5389 1571.8338,-266.5389"/>
<polygon fill="#000000" stroke="#000000" points="1568.3339,-266.5389 1571.8338,-276.5389 1575.3339,-266.539 1568.3339,-266.5389"/>
</g>
<!-- SkillsModule -->
<g id="node27" class="node">
<title>SkillsModule</title>
<polygon fill="#8dd3c7" stroke="#000000" points="1766.9499,-312.5901 1763.9499,-316.5901 1742.9499,-316.5901 1739.9499,-312.5901 1675.0501,-312.5901 1675.0501,-276.5901 1766.9499,-276.5901 1766.9499,-312.5901"/>
<text text-anchor="middle" x="1721" y="-290.3901" font-family="Times,serif" font-size="14.00" fill="#000000">SkillsModule</text>
</g>
<!-- MaterialModule&#45;&gt;SkillsModule -->
<g id="edge54" class="edge">
<title>MaterialModule&#45;&gt;SkillsModule</title>
<path fill="none" stroke="#000000" d="M729.3384,-276.3505C729.3384,-261.0195 729.3384,-241.5901 729.3384,-241.5901 729.3384,-241.5901 1692.7455,-241.5901 1692.7455,-241.5901 1692.7455,-241.5901 1692.7455,-266.3505 1692.7455,-266.3505"/>
<polygon fill="#000000" stroke="#000000" points="1689.2455,-266.3504 1692.7455,-276.3505 1696.2455,-266.3505 1689.2455,-266.3504"/>
</g>
<!-- ContactComponent -->
<g id="node8" class="node">
<title>ContactComponent</title>
<polygon fill="#ffffb3" stroke="#000000" points="320.3795,-236.5901 195.6205,-236.5901 195.6205,-200.5901 320.3795,-200.5901 320.3795,-236.5901"/>
<text text-anchor="middle" x="258" y="-214.3901" font-family="Times,serif" font-size="14.00" fill="#000000">ContactComponent</text>
</g>
<!-- ContactComponent&#45;&gt;ContactModule -->
<g id="edge7" class="edge">
<title>ContactComponent&#45;&gt;ContactModule</title>
<path fill="none" stroke="#000000" d="M272.4457,-236.601C272.4457,-236.601 272.4457,-266.445 272.4457,-266.445"/>
<polygon fill="#000000" stroke="#000000" points="268.9457,-266.445 272.4457,-276.445 275.9457,-266.4451 268.9457,-266.445"/>
</g>
<!-- ContactModule&#45;&gt;DefaultModule -->
<g id="edge19" class="edge">
<title>ContactModule&#45;&gt;DefaultModule</title>
<path fill="none" stroke="#000000" d="M258.8172,-312.8822C258.8172,-334.7957 258.8172,-368.5901 258.8172,-368.5901 258.8172,-368.5901 521.1472,-368.5901 521.1472,-368.5901"/>
<polygon fill="#000000" stroke="#000000" points="521.1472,-372.0902 531.1472,-368.5901 521.1471,-365.0902 521.1472,-372.0902"/>
</g>
<!-- ContactModule&#45;&gt;DefaultModule -->
<g id="edge20" class="edge">
<title>ContactModule&#45;&gt;DefaultModule</title>
<path fill="none" stroke="#000000" d="M293.1828,-312.8568C293.1828,-331.1452 293.1828,-356.5901 293.1828,-356.5901 293.1828,-356.5901 521.3614,-356.5901 521.3614,-356.5901"/>
<polygon fill="#000000" stroke="#000000" points="521.3614,-360.0902 531.3614,-356.5901 521.3613,-353.0902 521.3614,-360.0902"/>
</g>
<!-- ContactRoutingModule -->
<g id="node10" class="node">
<title>ContactRoutingModule</title>
<polygon fill="#8dd3c7" stroke="#000000" points="172.2148,-236.5901 169.2148,-240.5901 148.2148,-240.5901 145.2148,-236.5901 23.7852,-236.5901 23.7852,-200.5901 172.2148,-200.5901 172.2148,-236.5901"/>
<text text-anchor="middle" x="98" y="-214.3901" font-family="Times,serif" font-size="14.00" fill="#000000">ContactRoutingModule</text>
</g>
<!-- ContactRoutingModule&#45;&gt;ContactModule -->
<g id="edge8" class="edge">
<title>ContactRoutingModule&#45;&gt;ContactModule</title>
<path fill="none" stroke="#000000" d="M98,-236.601C98,-259.0752 98,-294.5901 98,-294.5901 98,-294.5901 214.0365,-294.5901 214.0365,-294.5901"/>
<polygon fill="#000000" stroke="#000000" points="214.0366,-298.0902 224.0365,-294.5901 214.0365,-291.0902 214.0366,-298.0902"/>
</g>
<!-- MainComponent -->
<g id="node11" class="node">
<title>MainComponent</title>
<polygon fill="#ffffb3" stroke="#000000" points="3512.3823,-236.5901 3401.6177,-236.5901 3401.6177,-200.5901 3512.3823,-200.5901 3512.3823,-236.5901"/>
<text text-anchor="middle" x="3457" y="-214.3901" font-family="Times,serif" font-size="14.00" fill="#000000">MainComponent</text>
</g>
<!-- CoreModule -->
<g id="node14" class="node">
<title>CoreModule</title>
<polygon fill="#8dd3c7" stroke="#000000" points="3579.2619,-312.5901 3576.2619,-316.5901 3555.2619,-316.5901 3552.2619,-312.5901 3492.7381,-312.5901 3492.7381,-276.5901 3579.2619,-276.5901 3579.2619,-312.5901"/>
<text text-anchor="middle" x="3536" y="-290.3901" font-family="Times,serif" font-size="14.00" fill="#000000">CoreModule</text>
</g>
<!-- MainComponent&#45;&gt;CoreModule -->
<g id="edge10" class="edge">
<title>MainComponent&#45;&gt;CoreModule</title>
<path fill="none" stroke="#000000" d="M3502.5302,-236.601C3502.5302,-236.601 3502.5302,-266.445 3502.5302,-266.445"/>
<polygon fill="#000000" stroke="#000000" points="3499.0302,-266.445 3502.5302,-276.445 3506.0302,-266.4451 3499.0302,-266.445"/>
</g>
<!-- PageNotFoundComponent -->
<g id="node12" class="node">
<title>PageNotFoundComponent</title>
<polygon fill="#ffffb3" stroke="#000000" points="3852.8243,-236.5901 3687.1757,-236.5901 3687.1757,-200.5901 3852.8243,-200.5901 3852.8243,-236.5901"/>
<text text-anchor="middle" x="3770" y="-214.3901" font-family="Times,serif" font-size="14.00" fill="#000000">PageNotFoundComponent</text>
</g>
<!-- PageNotFoundComponent&#45;&gt;CoreModule -->
<g id="edge11" class="edge">
<title>PageNotFoundComponent&#45;&gt;CoreModule</title>
<path fill="none" stroke="#000000" d="M3709.375,-236.6168C3709.375,-257.3573 3709.375,-288.5901 3709.375,-288.5901 3709.375,-288.5901 3589.3026,-288.5901 3589.3026,-288.5901"/>
<polygon fill="#000000" stroke="#000000" points="3589.3026,-285.0902 3579.3026,-288.5901 3589.3026,-292.0902 3589.3026,-285.0902"/>
</g>
<!-- WellcomeComponent -->
<g id="node13" class="node">
<title>WellcomeComponent</title>
<polygon fill="#ffffb3" stroke="#000000" points="3669.3627,-236.5901 3530.6373,-236.5901 3530.6373,-200.5901 3669.3627,-200.5901 3669.3627,-236.5901"/>
<text text-anchor="middle" x="3600" y="-214.3901" font-family="Times,serif" font-size="14.00" fill="#000000">WellcomeComponent</text>
</g>
<!-- WellcomeComponent&#45;&gt;CoreModule -->
<g id="edge12" class="edge">
<title>WellcomeComponent&#45;&gt;CoreModule</title>
<path fill="none" stroke="#000000" d="M3554.9748,-236.601C3554.9748,-236.601 3554.9748,-266.445 3554.9748,-266.445"/>
<polygon fill="#000000" stroke="#000000" points="3551.4748,-266.445 3554.9748,-276.445 3558.4748,-266.4451 3551.4748,-266.445"/>
</g>
<!-- CoreModule&#45;&gt;DefaultModule -->
<g id="edge21" class="edge">
<title>CoreModule&#45;&gt;DefaultModule</title>
<path fill="none" stroke="#000000" d="M3505.5097,-312.6456C3505.5097,-324.029 3505.5097,-336.5901 3505.5097,-336.5901 3505.5097,-336.5901 624.3031,-336.5901 624.3031,-336.5901 624.3031,-336.5901 624.3031,-337.3843 624.3031,-337.3843"/>
<polygon fill="#000000" stroke="#000000" points="620.8032,-334.5322 624.3031,-344.5322 627.8032,-334.5323 620.8032,-334.5322"/>
</g>
<!-- CoreModule&#45;&gt;FullPageModule -->
<g id="edge39" class="edge">
<title>CoreModule&#45;&gt;FullPageModule</title>
<path fill="none" stroke="#000000" d="M3518.4003,-312.7368C3518.4003,-326.3296 3518.4003,-342.5901 3518.4003,-342.5901 3518.4003,-342.5901 738.4331,-342.5901 738.4331,-342.5901 738.4331,-342.5901 738.4331,-342.7746 738.4331,-342.7746"/>
<polygon fill="#000000" stroke="#000000" points="734.9337,-334.4356 738.4331,-344.4358 741.9337,-334.436 734.9337,-334.4356"/>
</g>
<!-- MainComponent  -->
<g id="node15" class="node">
<title>MainComponent </title>
<polygon fill="#fb8072" stroke="#000000" points="3864.3828,-380.5901 3749.6172,-380.5901 3749.6172,-344.5901 3864.3828,-344.5901 3864.3828,-380.5901"/>
<text text-anchor="middle" x="3807" y="-358.3901" font-family="Times,serif" font-size="14.00" fill="#000000">MainComponent </text>
</g>
<!-- CoreModule&#45;&gt;MainComponent  -->
<g id="edge13" class="edge">
<title>CoreModule&#45;&gt;MainComponent </title>
<path fill="none" stroke="#000000" stroke-dasharray="5,2" d="M3579.5012,-300.5901C3654.7478,-300.5901 3801.2355,-300.5901 3801.2355,-300.5901 3801.2355,-300.5901 3801.2355,-334.3234 3801.2355,-334.3234"/>
<polygon fill="#000000" stroke="#000000" points="3797.7355,-334.3233 3801.2355,-344.3234 3804.7355,-334.3234 3797.7355,-334.3233"/>
</g>
<!-- PageNotFoundComponent  -->
<g id="node16" class="node">
<title>PageNotFoundComponent </title>
<polygon fill="#fb8072" stroke="#000000" points="3731.3241,-380.5901 3562.6759,-380.5901 3562.6759,-344.5901 3731.3241,-344.5901 3731.3241,-380.5901"/>
<text text-anchor="middle" x="3647" y="-358.3901" font-family="Times,serif" font-size="14.00" fill="#000000">PageNotFoundComponent </text>
</g>
<!-- CoreModule&#45;&gt;PageNotFoundComponent  -->
<g id="edge14" class="edge">
<title>CoreModule&#45;&gt;PageNotFoundComponent </title>
<path fill="none" stroke="#000000" stroke-dasharray="5,2" d="M3570.9844,-312.8128C3570.9844,-312.8128 3570.9844,-334.317 3570.9844,-334.317"/>
<polygon fill="#000000" stroke="#000000" points="3567.4845,-334.317 3570.9844,-344.317 3574.4845,-334.3171 3567.4845,-334.317"/>
</g>
<!-- WellcomeComponent  -->
<g id="node17" class="node">
<title>WellcomeComponent </title>
<polygon fill="#fb8072" stroke="#000000" points="3544.3631,-380.5901 3401.6369,-380.5901 3401.6369,-344.5901 3544.3631,-344.5901 3544.3631,-380.5901"/>
<text text-anchor="middle" x="3473" y="-358.3901" font-family="Times,serif" font-size="14.00" fill="#000000">WellcomeComponent </text>
</g>
<!-- CoreModule&#45;&gt;WellcomeComponent  -->
<g id="edge15" class="edge">
<title>CoreModule&#45;&gt;WellcomeComponent </title>
<path fill="none" stroke="#000000" stroke-dasharray="5,2" d="M3531.2908,-312.8128C3531.2908,-312.8128 3531.2908,-334.317 3531.2908,-334.317"/>
<polygon fill="#000000" stroke="#000000" points="3527.7909,-334.317 3531.2908,-344.317 3534.7909,-334.3171 3527.7909,-334.317"/>
</g>
<!-- DefaultComponent -->
<g id="node18" class="node">
<title>DefaultComponent</title>
<polygon fill="#ffffb3" stroke="#000000" points="1914.8104,-312.5901 1791.1896,-312.5901 1791.1896,-276.5901 1914.8104,-276.5901 1914.8104,-312.5901"/>
<text text-anchor="middle" x="1853" y="-290.3901" font-family="Times,serif" font-size="14.00" fill="#000000">DefaultComponent</text>
</g>
<!-- DefaultComponent&#45;&gt;DefaultModule -->
<g id="edge16" class="edge">
<title>DefaultComponent&#45;&gt;DefaultModule</title>
<path fill="none" stroke="#000000" d="M1853,-313.0119C1853,-321.8691 1853,-330.5901 1853,-330.5901 1853,-330.5901 598.9212,-330.5901 598.9212,-330.5901 598.9212,-330.5901 598.9212,-334.3467 598.9212,-334.3467"/>
<polygon fill="#000000" stroke="#000000" points="595.4213,-334.3466 598.9212,-344.3467 602.4213,-334.3467 595.4213,-334.3466"/>
</g>
<!-- ImageModalComponent -->
<g id="node19" class="node">
<title>ImageModalComponent</title>
<polygon fill="#ffffb3" stroke="#000000" points="2240.3627,-312.5901 2087.6373,-312.5901 2087.6373,-276.5901 2240.3627,-276.5901 2240.3627,-312.5901"/>
<text text-anchor="middle" x="2164" y="-290.3901" font-family="Times,serif" font-size="14.00" fill="#000000">ImageModalComponent</text>
</g>
<!-- ImageModalComponent&#45;&gt;DefaultModule -->
<g id="edge17" class="edge">
<title>ImageModalComponent&#45;&gt;DefaultModule</title>
<path fill="none" stroke="#000000" d="M2164,-312.7175C2164,-323.301 2164,-334.5901 2164,-334.5901 2164,-334.5901 615.8425,-334.5901 615.8425,-334.5901 615.8425,-334.5901 615.8425,-335.5694 615.8425,-335.5694"/>
<polygon fill="#000000" stroke="#000000" points="612.3426,-334.3831 615.8425,-344.3831 619.3426,-334.3832 612.3426,-334.3831"/>
</g>
<!-- PdfModalComponent -->
<g id="node20" class="node">
<title>PdfModalComponent</title>
<polygon fill="#ffffb3" stroke="#000000" points="2069.8258,-312.5901 1932.1742,-312.5901 1932.1742,-276.5901 2069.8258,-276.5901 2069.8258,-312.5901"/>
<text text-anchor="middle" x="2001" y="-290.3901" font-family="Times,serif" font-size="14.00" fill="#000000">PdfModalComponent</text>
</g>
<!-- PdfModalComponent&#45;&gt;DefaultModule -->
<g id="edge18" class="edge">
<title>PdfModalComponent&#45;&gt;DefaultModule</title>
<path fill="none" stroke="#000000" d="M2001,-312.6997C2001,-322.487 2001,-332.5901 2001,-332.5901 2001,-332.5901 607.3819,-332.5901 607.3819,-332.5901 607.3819,-332.5901 607.3819,-334.4469 607.3819,-334.4469"/>
<polygon fill="#000000" stroke="#000000" points="603.8819,-334.4468 607.3819,-344.4469 610.8819,-334.4469 603.8819,-334.4468"/>
</g>
<!-- EducationModule&#45;&gt;DefaultModule -->
<g id="edge22" class="edge">
<title>EducationModule&#45;&gt;DefaultModule</title>
<path fill="none" stroke="#000000" d="M1357,-312.7493C1357,-317.6333 1357,-321.5901 1357,-321.5901 1357,-321.5901 565.0788,-321.5901 565.0788,-321.5901 565.0788,-321.5901 565.0788,-334.4875 565.0788,-334.4875"/>
<polygon fill="#000000" stroke="#000000" points="561.5789,-334.4875 565.0788,-344.4875 568.5789,-334.4876 561.5789,-334.4875"/>
</g>
<!-- ExperienceModule&#45;&gt;DefaultModule -->
<g id="edge23" class="edge">
<title>ExperienceModule&#45;&gt;DefaultModule</title>
<path fill="none" stroke="#000000" d="M991,-312.6701C991,-314.4365 991,-315.5901 991,-315.5901 991,-315.5901 539.6969,-315.5901 539.6969,-315.5901 539.6969,-315.5901 539.6969,-334.5531 539.6969,-334.5531"/>
<polygon fill="#000000" stroke="#000000" points="536.197,-334.553 539.6969,-344.5531 543.197,-334.5531 536.197,-334.553"/>
</g>
<!-- InfoModule&#45;&gt;DefaultModule -->
<g id="edge24" class="edge">
<title>InfoModule&#45;&gt;DefaultModule</title>
<path fill="none" stroke="#000000" d="M1112,-312.7124C1112,-315.563 1112,-317.5901 1112,-317.5901 1112,-317.5901 548.1575,-317.5901 548.1575,-317.5901 548.1575,-317.5901 548.1575,-334.5461 548.1575,-334.5461"/>
<polygon fill="#000000" stroke="#000000" points="544.6576,-334.5461 548.1575,-344.5461 551.6576,-334.5462 544.6576,-334.5461"/>
</g>
<!-- PortfolioModule&#45;&gt;DefaultModule -->
<g id="edge26" class="edge">
<title>PortfolioModule&#45;&gt;DefaultModule</title>
<path fill="none" stroke="#000000" d="M1226,-312.7587C1226,-316.636 1226,-319.5901 1226,-319.5901 1226,-319.5901 556.6182,-319.5901 556.6182,-319.5901 556.6182,-319.5901 556.6182,-334.1047 556.6182,-334.1047"/>
<polygon fill="#000000" stroke="#000000" points="553.1182,-334.1046 556.6182,-344.1047 560.1182,-334.1047 553.1182,-334.1046"/>
</g>
<!-- ProjectsModule&#45;&gt;DefaultModule -->
<g id="edge27" class="edge">
<title>ProjectsModule&#45;&gt;DefaultModule</title>
<path fill="none" stroke="#000000" d="M1485,-312.7915C1485,-318.6181 1485,-323.5901 1485,-323.5901 1485,-323.5901 573.5394,-323.5901 573.5394,-323.5901 573.5394,-323.5901 573.5394,-334.4602 573.5394,-334.4602"/>
<polygon fill="#000000" stroke="#000000" points="570.0395,-334.4601 573.5394,-344.4602 577.0395,-334.4602 570.0395,-334.4601"/>
</g>
<!-- PublishModule&#45;&gt;DefaultModule -->
<g id="edge28" class="edge">
<title>PublishModule&#45;&gt;DefaultModule</title>
<path fill="none" stroke="#000000" d="M1606,-312.6229C1606,-319.4427 1606,-325.5901 1606,-325.5901 1606,-325.5901 582,-325.5901 582,-325.5901 582,-325.5901 582,-334.5236 582,-334.5236"/>
<polygon fill="#000000" stroke="#000000" points="578.5001,-334.5236 582,-344.5236 585.5001,-334.5237 578.5001,-334.5236"/>
</g>
<!-- SkillsModule&#45;&gt;DefaultModule -->
<g id="edge29" class="edge">
<title>SkillsModule&#45;&gt;DefaultModule</title>
<path fill="none" stroke="#000000" d="M1721,-312.6349C1721,-320.3391 1721,-327.5901 1721,-327.5901 1721,-327.5901 590.4606,-327.5901 590.4606,-327.5901 590.4606,-327.5901 590.4606,-334.27 590.4606,-334.27"/>
<polygon fill="#000000" stroke="#000000" points="586.9607,-334.27 590.4606,-344.27 593.9607,-334.2701 586.9607,-334.27"/>
</g>
<!-- EducationComponent -->
<g id="node28" class="node">
<title>EducationComponent</title>
<polygon fill="#ffffb3" stroke="#000000" points="2789.0954,-236.5901 2650.9046,-236.5901 2650.9046,-200.5901 2789.0954,-200.5901 2789.0954,-236.5901"/>
<text text-anchor="middle" x="2720" y="-214.3901" font-family="Times,serif" font-size="14.00" fill="#000000">EducationComponent</text>
</g>
<!-- EducationComponent&#45;&gt;EducationModule -->
<g id="edge30" class="edge">
<title>EducationComponent&#45;&gt;EducationModule</title>
<path fill="none" stroke="#000000" d="M2720,-236.6701C2720,-238.4365 2720,-239.5901 2720,-239.5901 2720,-239.5901 1396.5961,-239.5901 1396.5961,-239.5901 1396.5961,-239.5901 1396.5961,-266.581 1396.5961,-266.581"/>
<polygon fill="#000000" stroke="#000000" points="1393.0962,-266.581 1396.5961,-276.581 1400.0962,-266.581 1393.0962,-266.581"/>
</g>
<!-- {
 &#160;&#160;&#160;provide: STEPPER_GLOBAL_OPTIONS, useValue: { displayDefaultIndicatorType: false }
} -->
<g id="node29" class="node">
<title>{
 &#160;&#160;&#160;provide: STEPPER_GLOBAL_OPTIONS, useValue: { displayDefaultIndicatorType: false }
}</title>
<ellipse fill="#fdb462" stroke="#000000" cx="2973" cy="-127.295" rx="389.4548" ry="41.0911"/>
<text text-anchor="middle" x="2973" y="-139.895" font-family="Times,serif" font-size="14.00" fill="#000000">{</text>
<text text-anchor="middle" x="2973" y="-123.095" font-family="Times,serif" font-size="14.00" fill="#000000"> &#160;&#160;&#160;provide: STEPPER_GLOBAL_OPTIONS, useValue: { displayDefaultIndicatorType: false }</text>
<text text-anchor="middle" x="2973" y="-106.295" font-family="Times,serif" font-size="14.00" fill="#000000">}</text>
</g>
<!-- {
 &#160;&#160;&#160;provide: STEPPER_GLOBAL_OPTIONS, useValue: { displayDefaultIndicatorType: false }
}&#45;&gt;EducationComponent -->
<g id="edge31" class="edge">
<title>{
 &#160;&#160;&#160;provide: STEPPER_GLOBAL_OPTIONS, useValue: { displayDefaultIndicatorType: false }
}&#45;&gt;EducationComponent</title>
<path fill="none" stroke="#000000" d="M2720,-158.7136C2720,-158.7136 2720,-190.4388 2720,-190.4388"/>
<polygon fill="#000000" stroke="#000000" points="2716.5001,-190.4388 2720,-200.4388 2723.5001,-190.4389 2716.5001,-190.4388"/>
</g>
<!-- EducationRoutingModule -->
<g id="node30" class="node">
<title>EducationRoutingModule</title>
<polygon fill="#8dd3c7" stroke="#000000" points="2559.9312,-145.295 2556.9312,-149.295 2535.9312,-149.295 2532.9312,-145.295 2398.0688,-145.295 2398.0688,-109.295 2559.9312,-109.295 2559.9312,-145.295"/>
<text text-anchor="middle" x="2479" y="-123.095" font-family="Times,serif" font-size="14.00" fill="#000000">EducationRoutingModule</text>
</g>
<!-- EducationRoutingModule&#45;&gt;EducationModule -->
<g id="edge32" class="edge">
<title>EducationRoutingModule&#45;&gt;EducationModule</title>
<path fill="none" stroke="#000000" d="M2397.969,-127.5901C2144.4314,-127.5901 1383.075,-127.5901 1383.075,-127.5901 1383.075,-127.5901 1383.075,-266.4002 1383.075,-266.4002"/>
<polygon fill="#000000" stroke="#000000" points="1379.5751,-266.4002 1383.075,-276.4002 1386.5751,-266.4003 1379.5751,-266.4002"/>
</g>
<!-- ExperienceComponent -->
<g id="node31" class="node">
<title>ExperienceComponent</title>
<polygon fill="#ffffb3" stroke="#000000" points="724.2949,-236.5901 579.7051,-236.5901 579.7051,-200.5901 724.2949,-200.5901 724.2949,-236.5901"/>
<text text-anchor="middle" x="652" y="-214.3901" font-family="Times,serif" font-size="14.00" fill="#000000">ExperienceComponent</text>
</g>
<!-- ExperienceComponent&#45;&gt;ExperienceModule -->
<g id="edge34" class="edge">
<title>ExperienceComponent&#45;&gt;ExperienceModule</title>
<path fill="none" stroke="#000000" d="M700.6031,-236.7175C700.6031,-247.301 700.6031,-258.5901 700.6031,-258.5901 700.6031,-258.5901 990.1325,-258.5901 990.1325,-258.5901 990.1325,-258.5901 990.1325,-266.1682 990.1325,-266.1682"/>
<polygon fill="#000000" stroke="#000000" points="986.6326,-266.1682 990.1325,-276.1682 993.6326,-266.1683 986.6326,-266.1682"/>
</g>
<!-- ExperienceRoutingModule -->
<g id="node32" class="node">
<title>ExperienceRoutingModule</title>
<polygon fill="#8dd3c7" stroke="#000000" points="555.6302,-236.5901 552.6302,-240.5901 531.6302,-240.5901 528.6302,-236.5901 388.3698,-236.5901 388.3698,-200.5901 555.6302,-200.5901 555.6302,-236.5901"/>
<text text-anchor="middle" x="472" y="-214.3901" font-family="Times,serif" font-size="14.00" fill="#000000">ExperienceRoutingModule</text>
</g>
<!-- ExperienceRoutingModule&#45;&gt;ExperienceModule -->
<g id="edge35" class="edge">
<title>ExperienceRoutingModule&#45;&gt;ExperienceModule</title>
<path fill="none" stroke="#000000" d="M531.2139,-236.6456C531.2139,-248.029 531.2139,-260.5901 531.2139,-260.5901 531.2139,-260.5901 959.9383,-260.5901 959.9383,-260.5901 959.9383,-260.5901 959.9383,-266.3956 959.9383,-266.3956"/>
<polygon fill="#000000" stroke="#000000" points="956.4384,-266.3956 959.9383,-276.3956 963.4384,-266.3957 956.4384,-266.3956"/>
</g>
<!-- AlertModalComponent -->
<g id="node33" class="node">
<title>AlertModalComponent</title>
<polygon fill="#ffffb3" stroke="#000000" points="2576.1456,-312.5901 2429.8544,-312.5901 2429.8544,-276.5901 2576.1456,-276.5901 2576.1456,-312.5901"/>
<text text-anchor="middle" x="2503" y="-290.3901" font-family="Times,serif" font-size="14.00" fill="#000000">AlertModalComponent</text>
</g>
<!-- AlertModalComponent&#45;&gt;FullPageModule -->
<g id="edge37" class="edge">
<title>AlertModalComponent&#45;&gt;FullPageModule</title>
<path fill="none" stroke="#000000" d="M2503,-312.7705C2503,-325.6283 2503,-340.5901 2503,-340.5901 2503,-340.5901 717.2035,-340.5901 717.2035,-340.5901 717.2035,-340.5901 717.2035,-340.9733 717.2035,-340.9733"/>
<polygon fill="#000000" stroke="#000000" points="713.7038,-334.4221 717.2035,-344.4222 720.7038,-334.4223 713.7038,-334.4221"/>
</g>
<!-- FullPageComponent -->
<g id="node34" class="node">
<title>FullPageComponent</title>
<polygon fill="#ffffb3" stroke="#000000" points="2411.608,-312.5901 2280.392,-312.5901 2280.392,-276.5901 2411.608,-276.5901 2411.608,-312.5901"/>
<text text-anchor="middle" x="2346" y="-290.3901" font-family="Times,serif" font-size="14.00" fill="#000000">FullPageComponent</text>
</g>
<!-- FullPageComponent&#45;&gt;FullPageModule -->
<g id="edge38" class="edge">
<title>FullPageComponent&#45;&gt;FullPageModule</title>
<path fill="none" stroke="#000000" d="M2346,-312.7406C2346,-324.8609 2346,-338.5901 2346,-338.5901 2346,-338.5901 695.9739,-338.5901 695.9739,-338.5901 695.9739,-338.5901 695.9739,-339.171 695.9739,-339.171"/>
<polygon fill="#000000" stroke="#000000" points="692.4741,-334.3997 695.9739,-344.3998 699.4741,-334.3999 692.4741,-334.3997"/>
</g>
<!-- InfoComponent -->
<g id="node35" class="node">
<title>InfoComponent</title>
<polygon fill="#ffffb3" stroke="#000000" points="1020.1542,-236.5901 915.8458,-236.5901 915.8458,-200.5901 1020.1542,-200.5901 1020.1542,-236.5901"/>
<text text-anchor="middle" x="968" y="-214.3901" font-family="Times,serif" font-size="14.00" fill="#000000">InfoComponent</text>
</g>
<!-- InfoComponent&#45;&gt;InfoModule -->
<g id="edge41" class="edge">
<title>InfoComponent&#45;&gt;InfoModule</title>
<path fill="none" stroke="#000000" d="M1020.2172,-218.5901C1039.1702,-218.5901 1056.0172,-218.5901 1056.0172,-218.5901 1056.0172,-218.5901 1056.0172,-294.5901 1056.0172,-294.5901 1056.0172,-294.5901 1060.4342,-294.5901 1060.4342,-294.5901"/>
<polygon fill="#000000" stroke="#000000" points="1060.4342,-298.0902 1070.4342,-294.5901 1060.4341,-291.0902 1060.4342,-298.0902"/>
</g>
<!-- InfoRoutingModule -->
<g id="node36" class="node">
<title>InfoRoutingModule</title>
<polygon fill="#8dd3c7" stroke="#000000" points="891.9888,-236.5901 888.9888,-240.5901 867.9888,-240.5901 864.9888,-236.5901 764.0112,-236.5901 764.0112,-200.5901 891.9888,-200.5901 891.9888,-236.5901"/>
<text text-anchor="middle" x="828" y="-214.3901" font-family="Times,serif" font-size="14.00" fill="#000000">InfoRoutingModule</text>
</g>
<!-- InfoRoutingModule&#45;&gt;InfoModule -->
<g id="edge42" class="edge">
<title>InfoRoutingModule&#45;&gt;InfoModule</title>
<path fill="none" stroke="#000000" d="M837,-236.9101C837,-245.3784 837,-253.5901 837,-253.5901 837,-253.5901 1125.8118,-253.5901 1125.8118,-253.5901 1125.8118,-253.5901 1125.8118,-266.4875 1125.8118,-266.4875"/>
<polygon fill="#000000" stroke="#000000" points="1122.3119,-266.4875 1125.8118,-276.4875 1129.3119,-266.4876 1122.3119,-266.4875"/>
</g>
<!-- PortfolioComponent -->
<g id="node37" class="node">
<title>PortfolioComponent</title>
<polygon fill="#ffffb3" stroke="#000000" points="1369.608,-236.5901 1238.392,-236.5901 1238.392,-200.5901 1369.608,-200.5901 1369.608,-236.5901"/>
<text text-anchor="middle" x="1304" y="-214.3901" font-family="Times,serif" font-size="14.00" fill="#000000">PortfolioComponent</text>
</g>
<!-- PortfolioComponent&#45;&gt;PortfolioModule -->
<g id="edge44" class="edge">
<title>PortfolioComponent&#45;&gt;PortfolioModule</title>
<path fill="none" stroke="#000000" d="M1259.5543,-236.601C1259.5543,-236.601 1259.5543,-266.445 1259.5543,-266.445"/>
<polygon fill="#000000" stroke="#000000" points="1256.0544,-266.445 1259.5543,-276.445 1263.0544,-266.4451 1256.0544,-266.445"/>
</g>
<!-- PortfolioRoutingModule -->
<g id="node38" class="node">
<title>PortfolioRoutingModule</title>
<polygon fill="#8dd3c7" stroke="#000000" points="1214.4438,-236.5901 1211.4438,-240.5901 1190.4438,-240.5901 1187.4438,-236.5901 1059.5562,-236.5901 1059.5562,-200.5901 1214.4438,-200.5901 1214.4438,-236.5901"/>
<text text-anchor="middle" x="1137" y="-214.3901" font-family="Times,serif" font-size="14.00" fill="#000000">PortfolioRoutingModule</text>
</g>
<!-- PortfolioRoutingModule&#45;&gt;PortfolioModule -->
<g id="edge46" class="edge">
<title>PortfolioRoutingModule&#45;&gt;PortfolioModule</title>
<path fill="none" stroke="#000000" d="M1199.9268,-236.601C1199.9268,-236.601 1199.9268,-266.445 1199.9268,-266.445"/>
<polygon fill="#000000" stroke="#000000" points="1196.4269,-266.445 1199.9268,-276.445 1203.4269,-266.4451 1196.4269,-266.445"/>
</g>
<!-- ProjectsComponent -->
<g id="node39" class="node">
<title>ProjectsComponent</title>
<polygon fill="#ffffb3" stroke="#000000" points="1710.4313,-236.5901 1583.5687,-236.5901 1583.5687,-200.5901 1710.4313,-200.5901 1710.4313,-236.5901"/>
<text text-anchor="middle" x="1647" y="-214.3901" font-family="Times,serif" font-size="14.00" fill="#000000">ProjectsComponent</text>
</g>
<!-- ProjectsComponent&#45;&gt;ProjectsModule -->
<g id="edge47" class="edge">
<title>ProjectsComponent&#45;&gt;ProjectsModule</title>
<path fill="none" stroke="#000000" d="M1602.0333,-236.6271C1602.0333,-249.8813 1602.0333,-265.5901 1602.0333,-265.5901 1602.0333,-265.5901 1511.162,-265.5901 1511.162,-265.5901 1511.162,-265.5901 1511.162,-266.6699 1511.162,-266.6699"/>
<polygon fill="#000000" stroke="#000000" points="1507.6621,-266.3886 1511.162,-276.3886 1514.6621,-266.3886 1507.6621,-266.3886"/>
</g>
<!-- ProjectsRoutingModule -->
<g id="node40" class="node">
<title>ProjectsRoutingModule</title>
<polygon fill="#8dd3c7" stroke="#000000" points="1559.766,-236.5901 1556.766,-240.5901 1535.766,-240.5901 1532.766,-236.5901 1410.234,-236.5901 1410.234,-200.5901 1559.766,-200.5901 1559.766,-236.5901"/>
<text text-anchor="middle" x="1485" y="-214.3901" font-family="Times,serif" font-size="14.00" fill="#000000">ProjectsRoutingModule</text>
</g>
<!-- ProjectsRoutingModule&#45;&gt;ProjectsModule -->
<g id="edge49" class="edge">
<title>ProjectsRoutingModule&#45;&gt;ProjectsModule</title>
<path fill="none" stroke="#000000" d="M1485,-236.601C1485,-236.601 1485,-266.445 1485,-266.445"/>
<polygon fill="#000000" stroke="#000000" points="1481.5001,-266.445 1485,-276.445 1488.5001,-266.4451 1481.5001,-266.445"/>
</g>
<!-- PublishComponent -->
<g id="node41" class="node">
<title>PublishComponent</title>
<polygon fill="#ffffb3" stroke="#000000" points="2043.8413,-236.5901 1920.1587,-236.5901 1920.1587,-200.5901 2043.8413,-200.5901 2043.8413,-236.5901"/>
<text text-anchor="middle" x="1982" y="-214.3901" font-family="Times,serif" font-size="14.00" fill="#000000">PublishComponent</text>
</g>
<!-- PublishComponent&#45;&gt;PublishModule -->
<g id="edge50" class="edge">
<title>PublishComponent&#45;&gt;PublishModule</title>
<path fill="none" stroke="#000000" d="M1926.3335,-236.7144C1926.3335,-251.3732 1926.3335,-269.5901 1926.3335,-269.5901 1926.3335,-269.5901 1638.5305,-269.5901 1638.5305,-269.5901 1638.5305,-269.5901 1638.5305,-270.2732 1638.5305,-270.2732"/>
<polygon fill="#000000" stroke="#000000" points="1635.0307,-266.4214 1638.5305,-276.4214 1642.0307,-266.4215 1635.0307,-266.4214"/>
</g>
<!-- PublishRoutingModule -->
<g id="node42" class="node">
<title>PublishRoutingModule</title>
<polygon fill="#8dd3c7" stroke="#000000" points="1896.1764,-236.5901 1893.1764,-240.5901 1872.1764,-240.5901 1869.1764,-236.5901 1749.8236,-236.5901 1749.8236,-200.5901 1896.1764,-200.5901 1896.1764,-236.5901"/>
<text text-anchor="middle" x="1823" y="-214.3901" font-family="Times,serif" font-size="14.00" fill="#000000">PublishRoutingModule</text>
</g>
<!-- PublishRoutingModule&#45;&gt;PublishModule -->
<g id="edge52" class="edge">
<title>PublishRoutingModule&#45;&gt;PublishModule</title>
<path fill="none" stroke="#000000" d="M1753.9276,-236.8359C1753.9276,-250.7673 1753.9276,-267.5901 1753.9276,-267.5901 1753.9276,-267.5901 1620.2819,-267.5901 1620.2819,-267.5901 1620.2819,-267.5901 1620.2819,-268.4742 1620.2819,-268.4742"/>
<polygon fill="#000000" stroke="#000000" points="1616.782,-266.4308 1620.2819,-276.4309 1623.782,-266.4309 1616.782,-266.4308"/>
</g>
<!-- SkillsComponent -->
<g id="node43" class="node">
<title>SkillsComponent</title>
<polygon fill="#ffffb3" stroke="#000000" points="2357.7316,-236.5901 2244.2684,-236.5901 2244.2684,-200.5901 2357.7316,-200.5901 2357.7316,-236.5901"/>
<text text-anchor="middle" x="2301" y="-214.3901" font-family="Times,serif" font-size="14.00" fill="#000000">SkillsComponent</text>
</g>
<!-- SkillsComponent&#45;&gt;SkillsModule -->
<g id="edge53" class="edge">
<title>SkillsComponent&#45;&gt;SkillsModule</title>
<path fill="none" stroke="#000000" d="M2262.4151,-236.6171C2262.4151,-252.9877 2262.4151,-274.5901 2262.4151,-274.5901 2262.4151,-274.5901 1762.4588,-274.5901 1762.4588,-274.5901 1762.4588,-274.5901 1762.4588,-274.7746 1762.4588,-274.7746"/>
<polygon fill="#000000" stroke="#000000" points="1758.9594,-266.4356 1762.4588,-276.4358 1765.9594,-266.436 1758.9594,-266.4356"/>
</g>
<!-- SkillsRoutingModule -->
<g id="node44" class="node">
<title>SkillsRoutingModule</title>
<polygon fill="#8dd3c7" stroke="#000000" points="2220.0673,-236.5901 2217.0673,-240.5901 2196.0673,-240.5901 2193.0673,-236.5901 2083.9327,-236.5901 2083.9327,-200.5901 2220.0673,-200.5901 2220.0673,-236.5901"/>
<text text-anchor="middle" x="2152" y="-214.3901" font-family="Times,serif" font-size="14.00" fill="#000000">SkillsRoutingModule</text>
</g>
<!-- SkillsRoutingModule&#45;&gt;SkillsModule -->
<g id="edge55" class="edge">
<title>SkillsRoutingModule&#45;&gt;SkillsModule</title>
<path fill="none" stroke="#000000" d="M2153.926,-236.872C2153.926,-252.5378 2153.926,-272.5901 2153.926,-272.5901 2153.926,-272.5901 1758.1932,-272.5901 1758.1932,-272.5901 1758.1932,-272.5901 1758.1932,-272.9733 1758.1932,-272.9733"/>
<polygon fill="#000000" stroke="#000000" points="1754.6935,-266.4221 1758.1932,-276.4222 1761.6935,-266.4223 1754.6935,-266.4221"/>
</g>
</g>
</svg>
