<?xml version="1.0" encoding="UTF-8" standalone="no"?>
<!DOCTYPE svg PUBLIC "-//W3C//DTD SVG 1.1//EN"
 "http://www.w3.org/Graphics/SVG/1.1/DTD/svg11.dtd">
<!-- Generated by graphviz version 2.40.1 (20161225.0304)
 -->
<!-- Title: dependencies Pages: 1 -->
<svg width="504pt" height="211pt"
 viewBox="0.00 0.00 504.00 211.00" xmlns="http://www.w3.org/2000/svg" xmlns:xlink="http://www.w3.org/1999/xlink">
<g id="graph0" class="graph" transform="scale(1 1) rotate(0) translate(4 207)">
<title>dependencies</title>
<polygon fill="#ffffff" stroke="transparent" points="-4,4 -4,-207 500,-207 500,4 -4,4"/>
<text text-anchor="start" x="227.0091" y="-42.4" font-family="sans-serif" font-weight="bold" font-size="14.00" fill="#000000">Legend</text>
<polygon fill="#ffffb3" stroke="transparent" points="14,-10 14,-30 34,-30 34,-10 14,-10"/>
<text text-anchor="start" x="37.629" y="-15.4" font-family="sans-serif" font-size="14.00" fill="#000000"> &#160;Declarations</text>
<polygon fill="#8dd3c7" stroke="transparent" points="127,-10 127,-30 147,-30 147,-10 127,-10"/>
<text text-anchor="start" x="150.7251" y="-15.4" font-family="sans-serif" font-size="14.00" fill="#000000"> &#160;Module</text>
<polygon fill="#80b1d3" stroke="transparent" points="213,-10 213,-30 233,-30 233,-10 213,-10"/>
<text text-anchor="start" x="236.7812" y="-15.4" font-family="sans-serif" font-size="14.00" fill="#000000"> &#160;Bootstrap</text>
<polygon fill="#fdb462" stroke="transparent" points="310,-10 310,-30 330,-30 330,-10 310,-10"/>
<text text-anchor="start" x="333.6732" y="-15.4" font-family="sans-serif" font-size="14.00" fill="#000000"> &#160;Providers</text>
<polygon fill="#fb8072" stroke="transparent" points="406,-10 406,-30 426,-30 426,-10 406,-10"/>
<text text-anchor="start" x="429.7258" y="-15.4" font-family="sans-serif" font-size="14.00" fill="#000000"> &#160;Exports</text>
<g id="clust1" class="cluster">
<title>cluster_EducationModule</title>
<polygon fill="none" stroke="#000000" stroke-dasharray="1,5" points="8,-70 8,-195 488,-195 488,-70 8,-70"/>
</g>
<g id="clust2" class="cluster">
<title>cluster_EducationModule_declarations</title>
<polygon fill="none" stroke="#000000" points="326,-78 326,-130 480,-130 480,-78 326,-78"/>
</g>
<g id="clust4" class="cluster">
<title>cluster_EducationModule_imports</title>
<polygon fill="none" stroke="#000000" points="16,-78 16,-130 318,-130 318,-78 16,-78"/>
</g>
<!-- EducationComponent -->
<g id="node1" class="node">
<title>EducationComponent</title>
<polygon fill="#ffffb3" stroke="#000000" points="472.0954,-122 333.9046,-122 333.9046,-86 472.0954,-86 472.0954,-122"/>
<text text-anchor="middle" x="403" y="-99.8" font-family="Times,serif" font-size="14.00" fill="#000000">EducationComponent</text>
</g>
<!-- EducationModule -->
<g id="node2" class="node">
<title>EducationModule</title>
<polygon fill="#8dd3c7" stroke="#000000" points="287.3132,-187 284.3132,-191 263.3132,-191 260.3132,-187 170.6868,-187 170.6868,-151 287.3132,-151 287.3132,-187"/>
<text text-anchor="middle" x="229" y="-164.8" font-family="Times,serif" font-size="14.00" fill="#000000">EducationModule</text>
</g>
<!-- EducationComponent&#45;&gt;EducationModule -->
<g id="edge1" class="edge">
<title>EducationComponent&#45;&gt;EducationModule</title>
<path fill="none" stroke="#000000" d="M403,-122.1061C403,-141.3391 403,-169 403,-169 403,-169 297.4235,-169 297.4235,-169"/>
<polygon fill="#000000" stroke="#000000" points="297.4236,-165.5001 287.4235,-169 297.4235,-172.5001 297.4236,-165.5001"/>
</g>
<!-- EducationRoutingModule -->
<g id="node3" class="node">
<title>EducationRoutingModule</title>
<polygon fill="#8dd3c7" stroke="#000000" points="309.9312,-122 306.9312,-126 285.9312,-126 282.9312,-122 148.0688,-122 148.0688,-86 309.9312,-86 309.9312,-122"/>
<text text-anchor="middle" x="229" y="-99.8" font-family="Times,serif" font-size="14.00" fill="#000000">EducationRoutingModule</text>
</g>
<!-- EducationRoutingModule&#45;&gt;EducationModule -->
<g id="edge2" class="edge">
<title>EducationRoutingModule&#45;&gt;EducationModule</title>
<path fill="none" stroke="#000000" d="M229,-122.1061C229,-122.1061 229,-140.991 229,-140.991"/>
<polygon fill="#000000" stroke="#000000" points="225.5001,-140.9909 229,-150.991 232.5001,-140.991 225.5001,-140.9909"/>
</g>
<!-- MaterialModule -->
<g id="node4" class="node">
<title>MaterialModule</title>
<polygon fill="#8dd3c7" stroke="#000000" points="130.4706,-122 127.4706,-126 106.4706,-126 103.4706,-122 23.5294,-122 23.5294,-86 130.4706,-86 130.4706,-122"/>
<text text-anchor="middle" x="77" y="-99.8" font-family="Times,serif" font-size="14.00" fill="#000000">MaterialModule</text>
</g>
<!-- MaterialModule&#45;&gt;EducationModule -->
<g id="edge3" class="edge">
<title>MaterialModule&#45;&gt;EducationModule</title>
<path fill="none" stroke="#000000" d="M77,-122.1061C77,-141.3391 77,-169 77,-169 77,-169 160.6675,-169 160.6675,-169"/>
<polygon fill="#000000" stroke="#000000" points="160.6676,-172.5001 170.6675,-169 160.6675,-165.5001 160.6676,-172.5001"/>
</g>
</g>
</svg>
