<?xml version="1.0" encoding="UTF-8" standalone="no"?>
<!DOCTYPE svg PUBLIC "-//W3C//DTD SVG 1.1//EN"
 "http://www.w3.org/Graphics/SVG/1.1/DTD/svg11.dtd">
<!-- Generated by graphviz version 2.40.1 (20161225.0304)
 -->
<!-- Title: dependencies Pages: 1 -->
<svg width="834pt" height="323pt"
 viewBox="0.00 0.00 834.00 322.59" xmlns="http://www.w3.org/2000/svg" xmlns:xlink="http://www.w3.org/1999/xlink">
<g id="graph0" class="graph" transform="scale(1 1) rotate(0) translate(4 318.5901)">
<title>dependencies</title>
<polygon fill="#ffffff" stroke="transparent" points="-4,4 -4,-318.5901 830,-318.5901 830,4 -4,4"/>
<text text-anchor="start" x="392.0091" y="-42.4" font-family="sans-serif" font-weight="bold" font-size="14.00" fill="#000000">Legend</text>
<polygon fill="#ffffb3" stroke="transparent" points="179,-10 179,-30 199,-30 199,-10 179,-10"/>
<text text-anchor="start" x="202.629" y="-15.4" font-family="sans-serif" font-size="14.00" fill="#000000"> &#160;Declarations</text>
<polygon fill="#8dd3c7" stroke="transparent" points="292,-10 292,-30 312,-30 312,-10 292,-10"/>
<text text-anchor="start" x="315.7251" y="-15.4" font-family="sans-serif" font-size="14.00" fill="#000000"> &#160;Module</text>
<polygon fill="#80b1d3" stroke="transparent" points="378,-10 378,-30 398,-30 398,-10 378,-10"/>
<text text-anchor="start" x="401.7812" y="-15.4" font-family="sans-serif" font-size="14.00" fill="#000000"> &#160;Bootstrap</text>
<polygon fill="#fdb462" stroke="transparent" points="475,-10 475,-30 495,-30 495,-10 475,-10"/>
<text text-anchor="start" x="498.6732" y="-15.4" font-family="sans-serif" font-size="14.00" fill="#000000"> &#160;Providers</text>
<polygon fill="#fb8072" stroke="transparent" points="571,-10 571,-30 591,-30 591,-10 571,-10"/>
<text text-anchor="start" x="594.7258" y="-15.4" font-family="sans-serif" font-size="14.00" fill="#000000"> &#160;Exports</text>
<g id="clust1" class="cluster">
<title>cluster_EducationModule</title>
<polygon fill="none" stroke="#000000" stroke-dasharray="1,5" points="8,-70 8,-306.5901 818,-306.5901 818,-70 8,-70"/>
</g>
<g id="clust2" class="cluster">
<title>cluster_EducationModule_declarations</title>
<polygon fill="none" stroke="#000000" points="336,-189.5901 336,-241.5901 490,-241.5901 490,-189.5901 336,-189.5901"/>
</g>
<g id="clust3" class="cluster">
<title>cluster_EducationModule_EducationComponent_providers</title>
<polygon fill="none" stroke="#000000" points="16,-78 16,-176.5901 810,-176.5901 810,-78 16,-78"/>
</g>
<g id="clust4" class="cluster">
<title>cluster_EducationModule_imports</title>
<polygon fill="none" stroke="#000000" points="26,-189.5901 26,-241.5901 328,-241.5901 328,-189.5901 26,-189.5901"/>
</g>
<!-- EducationComponent -->
<g id="node1" class="node">
<title>EducationComponent</title>
<polygon fill="#ffffb3" stroke="#000000" points="482.0954,-233.5901 343.9046,-233.5901 343.9046,-197.5901 482.0954,-197.5901 482.0954,-233.5901"/>
<text text-anchor="middle" x="413" y="-211.3901" font-family="Times,serif" font-size="14.00" fill="#000000">EducationComponent</text>
</g>
<!-- EducationModule -->
<g id="node2" class="node">
<title>EducationModule</title>
<polygon fill="#8dd3c7" stroke="#000000" points="297.3132,-298.5901 294.3132,-302.5901 273.3132,-302.5901 270.3132,-298.5901 180.6868,-298.5901 180.6868,-262.5901 297.3132,-262.5901 297.3132,-298.5901"/>
<text text-anchor="middle" x="239" y="-276.3901" font-family="Times,serif" font-size="14.00" fill="#000000">EducationModule</text>
</g>
<!-- EducationComponent&#45;&gt;EducationModule -->
<g id="edge1" class="edge">
<title>EducationComponent&#45;&gt;EducationModule</title>
<path fill="none" stroke="#000000" d="M413,-233.6962C413,-252.9292 413,-280.5901 413,-280.5901 413,-280.5901 307.4235,-280.5901 307.4235,-280.5901"/>
<polygon fill="#000000" stroke="#000000" points="307.4236,-277.0902 297.4235,-280.5901 307.4235,-284.0902 307.4236,-277.0902"/>
</g>
<!-- {
 &#160;&#160;&#160;provide: STEPPER_GLOBAL_OPTIONS, useValue: { displayDefaultIndicatorType: false }
} -->
<g id="node3" class="node">
<title>{
 &#160;&#160;&#160;provide: STEPPER_GLOBAL_OPTIONS, useValue: { displayDefaultIndicatorType: false }
}</title>
<ellipse fill="#fdb462" stroke="#000000" cx="413" cy="-127.295" rx="389.4548" ry="41.0911"/>
<text text-anchor="middle" x="413" y="-139.895" font-family="Times,serif" font-size="14.00" fill="#000000">{</text>
<text text-anchor="middle" x="413" y="-123.095" font-family="Times,serif" font-size="14.00" fill="#000000"> &#160;&#160;&#160;provide: STEPPER_GLOBAL_OPTIONS, useValue: { displayDefaultIndicatorType: false }</text>
<text text-anchor="middle" x="413" y="-106.295" font-family="Times,serif" font-size="14.00" fill="#000000">}</text>
</g>
<!-- {
 &#160;&#160;&#160;provide: STEPPER_GLOBAL_OPTIONS, useValue: { displayDefaultIndicatorType: false }
}&#45;&gt;EducationComponent -->
<g id="edge2" class="edge">
<title>{
 &#160;&#160;&#160;provide: STEPPER_GLOBAL_OPTIONS, useValue: { displayDefaultIndicatorType: false }
}&#45;&gt;EducationComponent</title>
<path fill="none" stroke="#000000" d="M413,-168.5989C413,-168.5989 413,-187.2551 413,-187.2551"/>
<polygon fill="#000000" stroke="#000000" points="409.5001,-187.255 413,-197.2551 416.5001,-187.2551 409.5001,-187.255"/>
</g>
<!-- EducationRoutingModule -->
<g id="node4" class="node">
<title>EducationRoutingModule</title>
<polygon fill="#8dd3c7" stroke="#000000" points="319.9312,-233.5901 316.9312,-237.5901 295.9312,-237.5901 292.9312,-233.5901 158.0688,-233.5901 158.0688,-197.5901 319.9312,-197.5901 319.9312,-233.5901"/>
<text text-anchor="middle" x="239" y="-211.3901" font-family="Times,serif" font-size="14.00" fill="#000000">EducationRoutingModule</text>
</g>
<!-- EducationRoutingModule&#45;&gt;EducationModule -->
<g id="edge3" class="edge">
<title>EducationRoutingModule&#45;&gt;EducationModule</title>
<path fill="none" stroke="#000000" d="M239,-233.6962C239,-233.6962 239,-252.581 239,-252.581"/>
<polygon fill="#000000" stroke="#000000" points="235.5001,-252.581 239,-262.581 242.5001,-252.5811 235.5001,-252.581"/>
</g>
<!-- MaterialModule -->
<g id="node5" class="node">
<title>MaterialModule</title>
<polygon fill="#8dd3c7" stroke="#000000" points="140.4706,-233.5901 137.4706,-237.5901 116.4706,-237.5901 113.4706,-233.5901 33.5294,-233.5901 33.5294,-197.5901 140.4706,-197.5901 140.4706,-233.5901"/>
<text text-anchor="middle" x="87" y="-211.3901" font-family="Times,serif" font-size="14.00" fill="#000000">MaterialModule</text>
</g>
<!-- MaterialModule&#45;&gt;EducationModule -->
<g id="edge4" class="edge">
<title>MaterialModule&#45;&gt;EducationModule</title>
<path fill="none" stroke="#000000" d="M87,-233.6962C87,-252.9292 87,-280.5901 87,-280.5901 87,-280.5901 170.6675,-280.5901 170.6675,-280.5901"/>
<polygon fill="#000000" stroke="#000000" points="170.6676,-284.0902 180.6675,-280.5901 170.6675,-277.0902 170.6676,-284.0902"/>
</g>
</g>
</svg>
