<?xml version="1.0" encoding="UTF-8" standalone="no"?>
<!DOCTYPE svg PUBLIC "-//W3C//DTD SVG 1.1//EN"
 "http://www.w3.org/Graphics/SVG/1.1/DTD/svg11.dtd">
<!-- Generated by graphviz version 2.40.1 (20161225.0304)
 -->
<!-- Title: dependencies Pages: 1 -->
<svg width="587pt" height="211pt"
 viewBox="0.00 0.00 587.00 211.00" xmlns="http://www.w3.org/2000/svg" xmlns:xlink="http://www.w3.org/1999/xlink">
<g id="graph0" class="graph" transform="scale(1 1) rotate(0) translate(4 207)">
<title>dependencies</title>
<polygon fill="#ffffff" stroke="transparent" points="-4,4 -4,-207 583,-207 583,4 -4,4"/>
<text text-anchor="start" x="268.5091" y="-42.4" font-family="sans-serif" font-weight="bold" font-size="14.00" fill="#000000">Legend</text>
<polygon fill="#ffffb3" stroke="transparent" points="55.5,-10 55.5,-30 75.5,-30 75.5,-10 55.5,-10"/>
<text text-anchor="start" x="79.129" y="-15.4" font-family="sans-serif" font-size="14.00" fill="#000000"> &#160;Declarations</text>
<polygon fill="#8dd3c7" stroke="transparent" points="168.5,-10 168.5,-30 188.5,-30 188.5,-10 168.5,-10"/>
<text text-anchor="start" x="192.2251" y="-15.4" font-family="sans-serif" font-size="14.00" fill="#000000"> &#160;Module</text>
<polygon fill="#80b1d3" stroke="transparent" points="254.5,-10 254.5,-30 274.5,-30 274.5,-10 254.5,-10"/>
<text text-anchor="start" x="278.2812" y="-15.4" font-family="sans-serif" font-size="14.00" fill="#000000"> &#160;Bootstrap</text>
<polygon fill="#fdb462" stroke="transparent" points="351.5,-10 351.5,-30 371.5,-30 371.5,-10 351.5,-10"/>
<text text-anchor="start" x="375.1732" y="-15.4" font-family="sans-serif" font-size="14.00" fill="#000000"> &#160;Providers</text>
<polygon fill="#fb8072" stroke="transparent" points="447.5,-10 447.5,-30 467.5,-30 467.5,-10 447.5,-10"/>
<text text-anchor="start" x="471.2258" y="-15.4" font-family="sans-serif" font-size="14.00" fill="#000000"> &#160;Exports</text>
<g id="clust1" class="cluster">
<title>cluster_FullPageModule</title>
<polygon fill="none" stroke="#000000" stroke-dasharray="1,5" points="8,-70 8,-195 571,-195 571,-70 8,-70"/>
</g>
<g id="clust2" class="cluster">
<title>cluster_FullPageModule_declarations</title>
<polygon fill="none" stroke="#000000" points="251,-78 251,-130 563,-130 563,-78 251,-78"/>
</g>
<g id="clust5" class="cluster">
<title>cluster_FullPageModule_imports</title>
<polygon fill="none" stroke="#000000" points="16,-78 16,-130 243,-130 243,-78 16,-78"/>
</g>
<!-- AlertModalComponent -->
<g id="node1" class="node">
<title>AlertModalComponent</title>
<polygon fill="#ffffb3" stroke="#000000" points="555.1456,-122 408.8544,-122 408.8544,-86 555.1456,-86 555.1456,-122"/>
<text text-anchor="middle" x="482" y="-99.8" font-family="Times,serif" font-size="14.00" fill="#000000">AlertModalComponent</text>
</g>
<!-- FullPageModule -->
<g id="node3" class="node">
<title>FullPageModule</title>
<polygon fill="#8dd3c7" stroke="#000000" points="312.8259,-187 309.8259,-191 288.8259,-191 285.8259,-187 203.1741,-187 203.1741,-151 312.8259,-151 312.8259,-187"/>
<text text-anchor="middle" x="258" y="-164.8" font-family="Times,serif" font-size="14.00" fill="#000000">FullPageModule</text>
</g>
<!-- AlertModalComponent&#45;&gt;FullPageModule -->
<g id="edge1" class="edge">
<title>AlertModalComponent&#45;&gt;FullPageModule</title>
<path fill="none" stroke="#000000" d="M482,-122.1061C482,-141.3391 482,-169 482,-169 482,-169 322.7966,-169 322.7966,-169"/>
<polygon fill="#000000" stroke="#000000" points="322.7966,-165.5001 312.7966,-169 322.7965,-172.5001 322.7966,-165.5001"/>
</g>
<!-- FullPageComponent -->
<g id="node2" class="node">
<title>FullPageComponent</title>
<polygon fill="#ffffb3" stroke="#000000" points="390.608,-122 259.392,-122 259.392,-86 390.608,-86 390.608,-122"/>
<text text-anchor="middle" x="325" y="-99.8" font-family="Times,serif" font-size="14.00" fill="#000000">FullPageComponent</text>
</g>
<!-- FullPageComponent&#45;&gt;FullPageModule -->
<g id="edge2" class="edge">
<title>FullPageComponent&#45;&gt;FullPageModule</title>
<path fill="none" stroke="#000000" d="M286.0544,-122.1061C286.0544,-122.1061 286.0544,-140.991 286.0544,-140.991"/>
<polygon fill="#000000" stroke="#000000" points="282.5544,-140.9909 286.0544,-150.991 289.5544,-140.991 282.5544,-140.9909"/>
</g>
<!-- CoreModule -->
<g id="node4" class="node">
<title>CoreModule</title>
<polygon fill="#8dd3c7" stroke="#000000" points="235.2619,-122 232.2619,-126 211.2619,-126 208.2619,-122 148.7381,-122 148.7381,-86 235.2619,-86 235.2619,-122"/>
<text text-anchor="middle" x="192" y="-99.8" font-family="Times,serif" font-size="14.00" fill="#000000">CoreModule</text>
</g>
<!-- CoreModule&#45;&gt;FullPageModule -->
<g id="edge3" class="edge">
<title>CoreModule&#45;&gt;FullPageModule</title>
<path fill="none" stroke="#000000" d="M219.3591,-122.1061C219.3591,-122.1061 219.3591,-140.991 219.3591,-140.991"/>
<polygon fill="#000000" stroke="#000000" points="215.8591,-140.9909 219.3591,-150.991 222.8591,-140.991 215.8591,-140.9909"/>
</g>
<!-- MaterialModule -->
<g id="node5" class="node">
<title>MaterialModule</title>
<polygon fill="#8dd3c7" stroke="#000000" points="130.4706,-122 127.4706,-126 106.4706,-126 103.4706,-122 23.5294,-122 23.5294,-86 130.4706,-86 130.4706,-122"/>
<text text-anchor="middle" x="77" y="-99.8" font-family="Times,serif" font-size="14.00" fill="#000000">MaterialModule</text>
</g>
<!-- MaterialModule&#45;&gt;FullPageModule -->
<g id="edge4" class="edge">
<title>MaterialModule&#45;&gt;FullPageModule</title>
<path fill="none" stroke="#000000" d="M77,-122.1061C77,-141.3391 77,-169 77,-169 77,-169 193.2028,-169 193.2028,-169"/>
<polygon fill="#000000" stroke="#000000" points="193.2029,-172.5001 203.2028,-169 193.2028,-165.5001 193.2029,-172.5001"/>
</g>
</g>
</svg>
