<?xml version="1.0" encoding="UTF-8" standalone="no"?>
<!DOCTYPE svg PUBLIC "-//W3C//DTD SVG 1.1//EN"
 "http://www.w3.org/Graphics/SVG/1.1/DTD/svg11.dtd">
<!-- Generated by graphviz version 2.40.1 (20161225.0304)
 -->
<!-- Title: dependencies Pages: 1 -->
<svg width="504pt" height="211pt"
 viewBox="0.00 0.00 504.00 211.00" xmlns="http://www.w3.org/2000/svg" xmlns:xlink="http://www.w3.org/1999/xlink">
<g id="graph0" class="graph" transform="scale(1 1) rotate(0) translate(4 207)">
<title>dependencies</title>
<polygon fill="#ffffff" stroke="transparent" points="-4,4 -4,-207 500,-207 500,4 -4,4"/>
<text text-anchor="start" x="227.0091" y="-42.4" font-family="sans-serif" font-weight="bold" font-size="14.00" fill="#000000">Legend</text>
<polygon fill="#ffffb3" stroke="transparent" points="14,-10 14,-30 34,-30 34,-10 14,-10"/>
<text text-anchor="start" x="37.629" y="-15.4" font-family="sans-serif" font-size="14.00" fill="#000000"> &#160;Declarations</text>
<polygon fill="#8dd3c7" stroke="transparent" points="127,-10 127,-30 147,-30 147,-10 127,-10"/>
<text text-anchor="start" x="150.7251" y="-15.4" font-family="sans-serif" font-size="14.00" fill="#000000"> &#160;Module</text>
<polygon fill="#80b1d3" stroke="transparent" points="213,-10 213,-30 233,-30 233,-10 213,-10"/>
<text text-anchor="start" x="236.7812" y="-15.4" font-family="sans-serif" font-size="14.00" fill="#000000"> &#160;Bootstrap</text>
<polygon fill="#fdb462" stroke="transparent" points="310,-10 310,-30 330,-30 330,-10 310,-10"/>
<text text-anchor="start" x="333.6732" y="-15.4" font-family="sans-serif" font-size="14.00" fill="#000000"> &#160;Providers</text>
<polygon fill="#fb8072" stroke="transparent" points="406,-10 406,-30 426,-30 426,-10 406,-10"/>
<text text-anchor="start" x="429.7258" y="-15.4" font-family="sans-serif" font-size="14.00" fill="#000000"> &#160;Exports</text>
<g id="clust1" class="cluster">
<title>cluster_InfoModule</title>
<polygon fill="none" stroke="#000000" stroke-dasharray="1,5" points="42,-70 42,-195 454,-195 454,-70 42,-70"/>
</g>
<g id="clust2" class="cluster">
<title>cluster_InfoModule_declarations</title>
<polygon fill="none" stroke="#000000" points="326,-78 326,-130 446,-130 446,-78 326,-78"/>
</g>
<g id="clust4" class="cluster">
<title>cluster_InfoModule_imports</title>
<polygon fill="none" stroke="#000000" points="50,-78 50,-130 318,-130 318,-78 50,-78"/>
</g>
<!-- InfoComponent -->
<g id="node1" class="node">
<title>InfoComponent</title>
<polygon fill="#ffffb3" stroke="#000000" points="438.1542,-122 333.8458,-122 333.8458,-86 438.1542,-86 438.1542,-122"/>
<text text-anchor="middle" x="386" y="-99.8" font-family="Times,serif" font-size="14.00" fill="#000000">InfoComponent</text>
</g>
<!-- InfoModule -->
<g id="node2" class="node">
<title>InfoModule</title>
<polygon fill="#8dd3c7" stroke="#000000" points="287.3711,-187 284.3711,-191 263.3711,-191 260.3711,-187 204.6289,-187 204.6289,-151 287.3711,-151 287.3711,-187"/>
<text text-anchor="middle" x="246" y="-164.8" font-family="Times,serif" font-size="14.00" fill="#000000">InfoModule</text>
</g>
<!-- InfoComponent&#45;&gt;InfoModule -->
<g id="edge1" class="edge">
<title>InfoComponent&#45;&gt;InfoModule</title>
<path fill="none" stroke="#000000" d="M386,-122.1061C386,-141.3391 386,-169 386,-169 386,-169 297.6256,-169 297.6256,-169"/>
<polygon fill="#000000" stroke="#000000" points="297.6256,-165.5001 287.6256,-169 297.6255,-172.5001 297.6256,-165.5001"/>
</g>
<!-- InfoRoutingModule -->
<g id="node3" class="node">
<title>InfoRoutingModule</title>
<polygon fill="#8dd3c7" stroke="#000000" points="309.9888,-122 306.9888,-126 285.9888,-126 282.9888,-122 182.0112,-122 182.0112,-86 309.9888,-86 309.9888,-122"/>
<text text-anchor="middle" x="246" y="-99.8" font-family="Times,serif" font-size="14.00" fill="#000000">InfoRoutingModule</text>
</g>
<!-- InfoRoutingModule&#45;&gt;InfoModule -->
<g id="edge2" class="edge">
<title>InfoRoutingModule&#45;&gt;InfoModule</title>
<path fill="none" stroke="#000000" d="M246,-122.1061C246,-122.1061 246,-140.991 246,-140.991"/>
<polygon fill="#000000" stroke="#000000" points="242.5001,-140.9909 246,-150.991 249.5001,-140.991 242.5001,-140.9909"/>
</g>
<!-- MaterialModule -->
<g id="node4" class="node">
<title>MaterialModule</title>
<polygon fill="#8dd3c7" stroke="#000000" points="164.4706,-122 161.4706,-126 140.4706,-126 137.4706,-122 57.5294,-122 57.5294,-86 164.4706,-86 164.4706,-122"/>
<text text-anchor="middle" x="111" y="-99.8" font-family="Times,serif" font-size="14.00" fill="#000000">MaterialModule</text>
</g>
<!-- MaterialModule&#45;&gt;InfoModule -->
<g id="edge3" class="edge">
<title>MaterialModule&#45;&gt;InfoModule</title>
<path fill="none" stroke="#000000" d="M111,-122.1061C111,-141.3391 111,-169 111,-169 111,-169 194.394,-169 194.394,-169"/>
<polygon fill="#000000" stroke="#000000" points="194.394,-172.5001 204.394,-169 194.394,-165.5001 194.394,-172.5001"/>
</g>
</g>
</svg>
